<svg width="264" height="264" viewBox="0 0 264 264" fill="none" xmlns="http://www.w3.org/2000/svg">
  <path d="M170.691 171.799L203.982 205.09M170.691 171.799C182.959 159.531 189.851 142.892 189.851 125.542C189.851 108.192 182.959 91.5534 170.691 79.2854C158.423 67.0174 141.784 60.1253 124.434 60.1253C107.085 60.1253 90.4457 67.0174 78.1777 79.2854C65.9097 91.5534 59.0176 108.192 59.0176 125.542C59.0176 142.892 65.9097 159.531 78.1777 171.799C90.4457 184.067 107.085 190.959 124.434 190.959C141.784 190.959 158.423 184.067 170.691 171.799Z" stroke="#3F3F3F" stroke-width="12" stroke-linecap="round"/>
  <path d="M107.6 86.9385C110.144 86.9385 112.2 88.9942 112.2 91.5385C112.2 95.9229 117.504 98.1223 120.609 95.0173C122.406 93.2204 125.324 93.2204 127.121 95.0173C128.918 96.8142 128.918 99.7323 127.121 101.529C124.016 104.634 126.216 109.939 130.6 109.939C133.144 109.939 135.2 111.994 135.2 114.539C135.2 117.083 133.144 119.139 130.6 119.139C126.216 119.139 124.016 124.443 127.121 127.548C128.918 129.345 128.918 132.263 127.121 134.06C125.324 135.857 122.406 135.857 120.609 134.06C117.504 130.955 112.2 133.154 112.2 137.539C112.2 140.083 110.144 142.139 107.6 142.139C105.056 142.139 103 140.083 103 137.539C103 133.154 97.6956 130.955 94.5906 134.06C92.7937 135.857 89.8756 135.857 88.0787 134.06C86.2819 132.263 86.2819 129.345 88.0787 127.548C91.1838 124.443 88.9844 119.139 84.6 119.139C82.0556 119.139 80 117.083 80 114.539C80 111.994 82.0556 109.939 84.6 109.939C88.9844 109.939 91.1838 104.634 88.0787 101.529C86.2819 99.7323 86.2819 96.8142 88.0787 95.0173C89.8756 93.2204 92.7937 93.2204 94.5906 95.0173C97.6956 98.1223 103 95.9229 103 91.5385C103 88.9942 105.056 86.9385 107.6 86.9385ZM100.7 112.239C103.244 112.239 105.3 110.183 105.3 107.639C105.3 105.094 103.244 103.039 100.7 103.039C98.1556 103.039 96.1 105.094 96.1 107.639C96.1 110.183 98.1556 112.239 100.7 112.239ZM119.1 121.439C119.1 118.894 117.044 116.839 114.5 116.839C111.956 116.839 109.9 118.894 109.9 121.439C109.9 123.983 111.956 126.039 114.5 126.039C117.044 126.039 119.1 123.983 119.1 121.439ZM154.75 127.189C154.75 130.48 158.732 132.134 161.061 129.805C162.412 128.454 164.597 128.454 165.934 129.805C167.271 131.156 167.285 133.341 165.934 134.678C163.605 137.007 165.258 140.989 168.55 140.989C170.462 140.989 172 142.527 172 144.439C172 146.35 170.462 147.889 168.55 147.889C165.258 147.889 163.605 151.87 165.934 154.199C167.285 155.55 167.285 157.735 165.934 159.072C164.582 160.409 162.397 160.424 161.061 159.072C158.732 156.744 154.75 158.397 154.75 161.689C154.75 163.6 153.212 165.139 151.3 165.139C149.388 165.139 147.85 163.6 147.85 161.689C147.85 158.397 143.868 156.744 141.539 159.072C140.188 160.424 138.003 160.424 136.666 159.072C135.329 157.721 135.315 155.536 136.666 154.199C138.995 151.87 137.342 147.889 134.05 147.889C132.138 147.889 130.6 146.35 130.6 144.439C130.6 142.527 132.138 140.989 134.05 140.989C137.342 140.989 138.995 137.007 136.666 134.678C135.315 133.327 135.315 131.142 136.666 129.805C138.018 128.468 140.202 128.454 141.539 129.805C143.868 132.134 147.85 130.48 147.85 127.189C147.85 125.277 149.388 123.739 151.3 123.739C153.212 123.739 154.75 125.277 154.75 127.189ZM152.45 142.139C152.45 140.227 150.912 138.689 149 138.689C147.088 138.689 145.55 140.227 145.55 142.139C145.55 144.05 147.088 145.589 149 145.589C150.912 145.589 152.45 144.05 152.45 142.139Z" fill="#FF7138"/>
</svg>
