<svg width="46" height="42" viewBox="0 0 46 42" fill="none" xmlns="http://www.w3.org/2000/svg">
<defs>
  <linearGradient id="nexoraMark" x1="7" y1="3" x2="39" y2="39" gradientUnits="userSpaceOnUse">
    <stop offset="0" stop-color="#76F7FF"/>
    <stop offset="0.45" stop-color="#18C7FF"/>
    <stop offset="1" stop-color="#075CFF"/>
  </linearGradient>
  <linearGradient id="nexoraInner" x1="15" y1="10" x2="32" y2="32" gradientUnits="userSpaceOnUse">
    <stop offset="0" stop-color="#0E315F"/>
    <stop offset="1" stop-color="#061226"/>
  </linearGradient>
  <filter id="markShadow" x="-20%" y="-20%" width="140%" height="150%" color-interpolation-filters="sRGB">
    <feDropShadow dx="0" dy="5" stdDeviation="5" flood-color="#001033" flood-opacity=".46"/>
  </filter>
</defs>
<g filter="url(#markShadow)">
  <path d="M23 2.7 40.2 9.4c-.7 13.5-6.4 23.4-17.2 29.6C12.2 32.8 6.5 22.9 5.8 9.4L23 2.7Z" fill="url(#nexoraMark)"/>
  <path d="M23 7.4 35.4 12c-1 9.1-5.1 16.1-12.4 21.1C15.7 28.1 11.6 21.1 10.6 12L23 7.4Z" fill="url(#nexoraInner)"/>
  <path d="M15.5 27.8V14.2h4.4l8.6 13.6h-4.4L19.9 21v6.8h-4.4Z" fill="#EAF7FF"/>
  <path d="M30.5 14.2v13.6h-4.4l-8.6-13.6h4.4l4.2 6.8v-6.8h4.4Z" fill="#59E8FF"/>
  <path d="M15.5 14.2h4.4l10.6 13.6h-4.4L15.5 14.2Z" fill="url(#nexoraMark)"/>
</g>
</svg>
