<svg width="320" height="480" viewBox="0 0 320 480" fill="none" xmlns="http://www.w3.org/2000/svg">
<defs>
  <linearGradient id="heroBlue" x1="42" y1="40" x2="280" y2="420" gradientUnits="userSpaceOnUse">
    <stop stop-color="#76F7FF"/>
    <stop offset=".48" stop-color="#18C7FF"/>
    <stop offset="1" stop-color="#075CFF"/>
  </linearGradient>
  <linearGradient id="heroPanel" x1="70" y1="74" x2="248" y2="394" gradientUnits="userSpaceOnUse">
    <stop stop-color="#12325E"/>
    <stop offset="1" stop-color="#061226"/>
  </linearGradient>
  <radialGradient id="heroGlow" cx="50%" cy="42%" r="58%">
    <stop stop-color="#2AD7F7" stop-opacity=".38"/>
    <stop offset="1" stop-color="#2AD7F7" stop-opacity="0"/>
  </radialGradient>
  <filter id="softShadow" x="-25%" y="-25%" width="150%" height="150%">
    <feDropShadow dx="0" dy="28" stdDeviation="22" flood-color="#00091C" flood-opacity=".48"/>
  </filter>
</defs>
<rect width="320" height="480" rx="34" fill="url(#heroGlow)"/>
<g filter="url(#softShadow)">
  <path d="M160 53 266 96c-4 82-38 144-106 185C92 240 58 178 54 96L160 53Z" fill="url(#heroBlue)"/>
  <path d="M160 82 235 112c-7 57-32 101-75 131-43-30-68-74-75-131l75-30Z" fill="url(#heroPanel)"/>
  <path d="M93 291c20-33 43-49 67-49s47 16 67 49" stroke="#63F4FF" stroke-width="12" stroke-linecap="round" opacity=".72"/>
  <path d="M109 331c16-20 33-30 51-30s35 10 51 30" stroke="#18C7FF" stroke-width="10" stroke-linecap="round" opacity=".68"/>
  <circle cx="160" cy="175" r="57" fill="#061226" stroke="#59E8FF" stroke-width="2"/>
  <circle cx="160" cy="175" r="39" fill="url(#heroBlue)" opacity=".92"/>
  <path d="M133 191v-35h12l25 35h-12l-13-19v19h-12Z" fill="#EAF7FF"/>
  <path d="M187 156v35h-12l-25-35h12l13 19v-19h12Z" fill="#061226" opacity=".84"/>
  <path d="M132 156h13l43 35h-13l-43-35Z" fill="#59E8FF"/>
  <rect x="78" y="358" width="164" height="48" rx="24" fill="#0B2447" stroke="#59E8FF" stroke-opacity=".28"/>
  <text x="160" y="379" text-anchor="middle" fill="#EAF7FF" font-family="Inter, Arial, sans-serif" font-size="13" font-weight="800">Private route secured</text>
  <text x="160" y="396" text-anchor="middle" fill="#59E8FF" font-family="Inter, Arial, sans-serif" font-size="12" font-weight="800">86 Mbps active tunnel</text>
  <circle cx="72" cy="250" r="7" fill="#59E8FF"/>
  <circle cx="248" cy="250" r="7" fill="#0A65FF"/>
  <path d="M79 250h42M199 250h42" stroke="#59E8FF" stroke-width="3" stroke-linecap="round" opacity=".58"/>
</g>
</svg>
