<svg width="241" height="295" viewBox="0 0 241 295" fill="none" xmlns="http://www.w3.org/2000/svg">
<defs>
  <linearGradient id="vpnA" x1="32" y1="35" x2="210" y2="250" gradientUnits="userSpaceOnUse"><stop stop-color="#76F7FF"/><stop offset="1" stop-color="#075CFF"/></linearGradient>
  <radialGradient id="vpnG" cx="50%" cy="42%" r="62%"><stop stop-color="#2AD7F7" stop-opacity=".35"/><stop offset="1" stop-color="#2AD7F7" stop-opacity="0"/></radialGradient>
</defs>
<rect width="241" height="295" rx="24" fill="url(#vpnG)"/>
<circle cx="120.5" cy="141" r="72" fill="#07162D" stroke="#2AD7F7" stroke-opacity=".25"/>
<circle cx="120.5" cy="141" r="42" fill="#0B2447" stroke="#59E8FF" stroke-opacity=".5"/>
<path d="M120.5 76v130M55 141h131" stroke="#59E8FF" stroke-width="2" stroke-linecap="round" opacity=".42"/>
<path d="M72 103c28 15 68 15 97 0M72 179c28-15 68-15 97 0" stroke="#59E8FF" stroke-width="2" stroke-linecap="round" opacity=".34"/>
<path d="M120.5 104 154 118c-2 34-13 58-33.5 73C100 176 89 152 87 118l33.5-14Z" fill="url(#vpnA)"/>
<path d="M108 151v-26h8l17 26h-8l-9-13v13h-8Z" fill="#EAF7FF"/>
<circle cx="42" cy="62" r="10" fill="#59E8FF"/><circle cx="202" cy="78" r="8" fill="#0A65FF"/><circle cx="200" cy="222" r="10" fill="#59E8FF"/><circle cx="44" cy="216" r="8" fill="#0A65FF"/>
<path d="M51 67 91 111M194 83l-37 31M193 218l-39-42M51 212l36-35" stroke="#59E8FF" stroke-width="3" stroke-linecap="round" opacity=".55"/>
<text x="120.5" y="254" text-anchor="middle" fill="#EAF7FF" font-family="Inter, Arial, sans-serif" font-size="16" font-weight="800">Global VPN Route</text>
</svg>
