<svg width="241" height="295" viewBox="0 0 241 295" fill="none" xmlns="http://www.w3.org/2000/svg">
<defs><linearGradient id="idA" x1="49" y1="37" x2="198" y2="238" gradientUnits="userSpaceOnUse"><stop stop-color="#76F7FF"/><stop offset="1" stop-color="#075CFF"/></linearGradient></defs>
<circle cx="120.5" cy="136" r="82" fill="#07162D" stroke="#2AD7F7" stroke-opacity=".18"/>
<circle cx="120.5" cy="111" r="31" fill="url(#idA)"/>
<path d="M76 201c8-34 25-51 44.5-51S157 167 165 201" fill="#0B2447" stroke="#59E8FF" stroke-opacity=".28" stroke-width="2"/>
<path d="M95 110c18-22 36-22 53 0M90 133c21 29 40 29 61 0" stroke="#EAF7FF" stroke-width="5" stroke-linecap="round" opacity=".85"/>
<path d="M60 75h32M149 75h32M60 221h32M149 221h32" stroke="#59E8FF" stroke-width="5" stroke-linecap="round"/>
<path d="M120.5 52v25M120.5 215v25" stroke="#0A65FF" stroke-width="5" stroke-linecap="round"/>
<text x="120.5" y="259" text-anchor="middle" fill="#EAF7FF" font-family="Inter, Arial, sans-serif" font-size="16" font-weight="800">Identity Watch</text>
</svg>
