<svg width="44" height="44" viewBox="0 0 44 44" fill="none" xmlns="http://www.w3.org/2000/svg">
<rect x="0.5" y="0.5" width="43" height="43" rx="11.5" fill="url(#paint0_linear_3091_7995)"/>
<rect x="0.5" y="0.5" width="43" height="43" rx="11.5" stroke="#F4F4F4"/>
<path d="M26.1066 14.6148C24.3055 14.6148 22.8308 15.6838 21.8879 15.6838C20.8846 15.6838 19.5791 14.6853 18.0077 14.6853C15.022 14.6853 12 17.0816 12 21.5922C12 24.4114 13.1121 27.3832 14.5022 29.2979C15.6868 30.919 16.7264 32.2463 18.2253 32.2463C19.7 32.2463 20.3527 31.2949 22.1901 31.2949C24.0516 31.2949 24.4748 32.2229 26.1066 32.2229C27.7264 32.2229 28.8022 30.778 29.8297 29.3567C30.9659 27.7239 31.4495 26.1382 31.4615 26.0559C31.3648 26.0324 28.2703 24.799 28.2703 21.3573C28.2703 18.3737 30.7 17.0346 30.845 16.9289C29.2373 14.6853 26.7835 14.6148 26.1066 14.6148ZM25.2605 12.7119C25.9978 11.8427 26.5176 10.6563 26.5176 9.45811C26.5176 9.29366 26.5055 9.12921 26.4813 9C25.2725 9.04699 23.8219 9.77527 22.9637 10.762C22.2747 11.5137 21.6461 12.7119 21.6461 13.91C21.6461 14.098 21.6824 14.2742 21.6945 14.3329C21.767 14.3447 21.8879 14.3682 22.0209 14.3682C23.0967 14.3682 24.4505 13.6634 25.2605 12.7119Z" fill="url(#paint1_linear_3091_7995)"/>
<defs>
<linearGradient id="paint0_linear_3091_7995" x1="21.6751" y1="0.536585" x2="21.6751" y2="47.7561" gradientUnits="userSpaceOnUse">
<stop stop-color="#A9A9B0"/>
<stop offset="1" stop-color="#52525C"/>
</linearGradient>
<linearGradient id="paint1_linear_3091_7995" x1="21.7308" y1="17.7695" x2="21.7308" y2="32.2463" gradientUnits="userSpaceOnUse">
<stop stop-color="white"/>
<stop offset="1" stop-color="#C6C6C6"/>
</linearGradient>
</defs>
</svg>
