<svg width="52" height="52" viewBox="0 0 52 52" fill="none" xmlns="http://www.w3.org/2000/svg">
<path opacity="0.36" d="M36.1698 6.23804C41.2987 6.54916 45.3887 10.6392 45.6999 15.7681L46.3234 26.0476L45.6999 36.3271C45.3887 41.456 41.2987 45.546 36.1698 45.8571L25.8903 46.4807L15.6108 45.8571C10.4819 45.546 6.39189 41.456 6.08076 36.3271L5.45721 26.0476L6.08076 15.7681C6.39189 10.6392 10.4819 6.54916 15.6108 6.23804L25.8903 5.61448L36.1698 6.23804Z" fill="url(#paint0_linear_602_1339)"/>
<path d="M16.418 7.12948C21.8077 2.35626 29.9121 2.35626 35.3018 7.12948L40.3083 11.5633L44.7421 16.5698C49.5153 21.9595 49.5153 30.0639 44.7421 35.4536L40.3083 40.4601L35.3018 44.894C29.9121 49.6672 21.8077 49.6672 16.418 44.894L11.4115 40.4601L6.97764 35.4536C2.20442 30.0639 2.20442 21.9595 6.97764 16.5698L11.4115 11.5633L16.418 7.12948Z" fill="#1A84FD"/>
<path d="M21.3007 17.3091C22.3711 18.0528 23.2046 19.0679 23.9164 20.0393L24.3304 20.6142L24.7209 21.1633C24.9162 21.4354 24.9998 21.7664 24.9555 22.0934C24.9113 22.4204 24.7425 22.7205 24.4811 22.9364L22.654 24.2301C22.5657 24.2908 22.5035 24.3801 22.4791 24.4812C22.4546 24.5824 22.4695 24.6886 22.521 24.78C22.9349 25.497 23.671 26.5648 24.5139 27.3683C25.3568 28.1718 26.5303 28.92 27.3348 29.3592C27.4356 29.4132 27.5543 29.4283 27.6665 29.4014C27.7787 29.3745 27.8758 29.3076 27.9379 29.2146L29.1273 27.4888C29.3459 27.2119 29.6685 27.0264 30.0274 26.9711C30.3864 26.9159 30.7538 26.9952 31.0528 27.1924L31.6737 27.6022C32.8341 28.37 34.0806 29.2423 35.034 30.4056C35.1852 30.5911 35.2814 30.8119 35.3125 31.045C35.3436 31.278 35.3086 31.5148 35.211 31.7305C34.4271 33.4742 32.4435 34.9589 30.3804 34.8866L30.0994 34.8714L29.8812 34.8535L29.6396 34.8268L29.3764 34.7928L29.0908 34.7482L28.9409 34.7214L28.6262 34.6571L28.4614 34.6214L28.1186 34.5375L27.7581 34.4393L27.3816 34.3232C25.6527 33.7643 23.4584 32.6662 21.207 30.5199C18.9556 28.3736 17.8046 26.2826 17.2183 24.6345L17.0966 24.2756L16.9936 23.9319L16.9055 23.6051L16.8325 23.2962C16.8114 23.1994 16.7917 23.1024 16.7735 23.0051L16.7266 22.7328L16.6892 22.482L16.662 22.2516L16.6433 22.0436L16.6283 21.7758C16.5525 19.8152 18.1268 17.9108 19.9474 17.1671C20.1665 17.0769 20.4065 17.0426 20.6437 17.0674C20.881 17.0923 21.1074 17.1756 21.3007 17.3091ZM28.9194 20.5187L29.028 20.5303C29.7097 20.6449 30.3359 20.9624 30.8167 21.4371C31.2975 21.9118 31.6083 22.5195 31.7046 23.173C31.7389 23.399 31.6811 23.629 31.543 23.8156C31.4048 24.0023 31.1969 24.1313 30.962 24.1763C30.7271 24.2212 30.4831 24.1786 30.2801 24.0573C30.0772 23.9359 29.9307 23.745 29.8709 23.5239L29.8493 23.4212C29.8117 23.165 29.697 22.9248 29.5192 22.7294C29.3413 22.5341 29.108 22.392 28.8473 22.3204L28.7021 22.2891C28.4669 22.2494 28.2566 22.1255 28.114 21.9428C27.9715 21.7601 27.9076 21.5324 27.9353 21.3063C27.9631 21.0801 28.0804 20.8726 28.2633 20.7262C28.4463 20.5798 28.6809 20.5056 28.9194 20.5187ZM28.9269 17.8046C30.4172 17.8046 31.8464 18.3689 32.9002 19.3735C33.954 20.3781 34.5461 21.7407 34.5461 23.1614C34.5458 23.3889 34.4544 23.6078 34.2905 23.7733C34.1267 23.9388 33.9027 24.0383 33.6644 24.0517C33.4261 24.065 33.1915 23.9911 33.0084 23.845C32.8254 23.699 32.7077 23.4918 32.6795 23.2658L32.673 23.1614C32.6729 22.2548 32.3111 21.3822 31.661 20.7205C31.0109 20.0588 30.1212 19.6576 29.1722 19.5982L28.9269 19.5902C28.6785 19.5902 28.4403 19.4961 28.2646 19.3287C28.089 19.1612 27.9903 18.9342 27.9903 18.6974C27.9903 18.4606 28.089 18.2335 28.2646 18.0661C28.4403 17.8986 28.6785 17.8046 28.9269 17.8046Z" fill="#F5F5FF"/>
<defs>
<linearGradient id="paint0_linear_602_1339" x1="24.6736" y1="1.71346" x2="55.7791" y2="36.3676" gradientUnits="userSpaceOnUse">
<stop stop-color="#686FFF"/>
<stop offset="1" stop-color="#8F94FF"/>
</linearGradient>
</defs>
</svg>
