<svg width="24" height="24" viewBox="0 0 24 24" fill="none" xmlns="http://www.w3.org/2000/svg">
<path d="M11.16 3.13759C11.5779 2.41377 12.6227 2.41377 13.0406 3.13759L22.7566 19.9663C23.1745 20.6901 22.6522 21.5949 21.8164 21.5949H2.38422C1.54843 21.5949 1.02606 20.6901 1.44395 19.9663L11.16 3.13759Z" fill="#FFD02C"/>
<path d="M11.4876 14.9058L11.3331 8.41229H13.1865L13.0321 14.9058H11.4876ZM12.2665 18.2768C11.9263 18.2768 11.6555 18.1828 11.454 17.9947C11.2526 17.8022 11.1518 17.5448 11.1518 17.2225C11.1518 16.9002 11.2526 16.645 11.454 16.457C11.6555 16.2645 11.9263 16.1682 12.2665 16.1682C12.6068 16.1682 12.8776 16.2645 13.0791 16.457C13.2805 16.645 13.3812 16.9002 13.3812 17.2225C13.3812 17.5448 13.2805 17.8022 13.0791 17.9947C12.8776 18.1828 12.6068 18.2768 12.2665 18.2768Z" fill="#2E2E2F"/>
</svg>
