<svg width="32" height="32" viewBox="0 0 32 32" fill="none" xmlns="http://www.w3.org/2000/svg">
<path d="M14.88 4.1828C15.4372 3.21771 16.8302 3.21771 17.3874 4.1828L30.3422 26.6211C30.8994 27.5862 30.2029 28.7926 29.0885 28.7926H3.17896C2.06457 28.7926 1.36808 27.5862 1.92527 26.6211L14.88 4.1828Z" fill="#FFD02C"/>
<path d="M15.2989 20.8757L15.0929 12.2177H17.5552L17.3492 20.8757H15.2989ZM16.3375 25.3614C15.8898 25.3614 15.5317 25.236 15.2631 24.9853C14.9945 24.7287 14.8602 24.3884 14.8602 23.9646C14.8602 23.5408 14.9945 23.2036 15.2631 22.9529C15.5317 22.6962 15.8898 22.5679 16.3375 22.5679C16.7852 22.5679 17.1403 22.6962 17.4029 22.9529C17.6715 23.2036 17.8058 23.5408 17.8058 23.9646C17.8058 24.3884 17.6715 24.7287 17.4029 24.9853C17.1403 25.236 16.7852 25.3614 16.3375 25.3614Z" fill="#2E2E2F"/>
</svg>
