<svg width="16" height="16" viewBox="0 0 16 16" fill="none" xmlns="http://www.w3.org/2000/svg">
<g filter="url(#filter0_i_3091_8368)">
<path d="M7.30373 1.9C7.61318 1.36667 8.38682 1.36667 8.69627 1.9L15.8911 14.3C16.2005 14.8333 15.8137 15.5 15.1948 15.5H0.805184C0.186275 15.5 -0.200541 14.8333 0.108913 14.3L7.30373 1.9Z" fill="#FF4F35"/>
</g>
<path d="M7.84386 10.765L7.7602 7.24768H8.76411L8.68045 10.765H7.84386ZM8.2658 12.5909C8.0815 12.5909 7.9348 12.54 7.82568 12.4382C7.71656 12.3339 7.662 12.1945 7.662 12.0199C7.662 11.8453 7.71656 11.7071 7.82568 11.6052C7.9348 11.5009 8.0815 11.4488 8.2658 11.4488C8.45009 11.4488 8.59679 11.5009 8.70591 11.6052C8.81503 11.7071 8.86959 11.8453 8.86959 12.0199C8.86959 12.1945 8.81503 12.3339 8.70591 12.4382C8.59679 12.54 8.45009 12.5909 8.2658 12.5909Z" fill="white"/>
<defs>
<filter id="filter0_i_3091_8368" x="0" y="1.5" width="16" height="16" filterUnits="userSpaceOnUse" color-interpolation-filters="sRGB">
<feFlood flood-opacity="0" result="BackgroundImageFix"/>
<feBlend mode="normal" in="SourceGraphic" in2="BackgroundImageFix" result="shape"/>
<feColorMatrix in="SourceAlpha" type="matrix" values="0 0 0 0 0 0 0 0 0 0 0 0 0 0 0 0 0 0 127 0" result="hardAlpha"/>
<feOffset dy="2"/>
<feGaussianBlur stdDeviation="1"/>
<feComposite in2="hardAlpha" operator="arithmetic" k2="-1" k3="1"/>
<feColorMatrix type="matrix" values="0 0 0 0 1 0 0 0 0 1 0 0 0 0 1 0 0 0 0.25 0"/>
<feBlend mode="normal" in2="shape" result="effect1_innerShadow_3091_8368"/>
</filter>
</defs>
</svg>
