<svg width="70" height="70" viewBox="0 0 70 70" fill="none" xmlns="http://www.w3.org/2000/svg">
<g filter="url(#filter0_i_1258_1683)">
<path d="M31.5359 6C33.0755 3.33333 36.9245 3.33333 38.4641 6L61.8468 46.5C63.3864 49.1667 61.4619 52.5 58.3827 52.5H11.6173C8.53811 52.5 6.61361 49.1667 8.15321 46.5L31.5359 6Z" fill="url(#paint0_linear_1258_1683)"/>
</g>
<path d="M31.9688 6.25C33.3159 3.91667 36.6841 3.91667 38.0312 6.25L61.4141 46.75C62.7611 49.0833 61.077 51.9999 58.3828 52H11.6172C8.92301 51.9999 7.23894 49.0833 8.58594 46.75L31.9688 6.25Z" stroke="white" stroke-opacity="0.2"/>
<path d="M33.6024 35.3489L33.3253 23.5H36.6627L36.3855 35.3489H33.6024ZM35 41.5C33.7831 41.5 33 40.7403 33 39.5762C33 38.3999 33.7831 37.6402 35 37.6402C36.2169 37.6402 37 38.3999 37 39.5762C37 40.7403 36.2169 41.5 35 41.5Z" fill="#454545"/>
<defs>
<filter id="filter0_i_1258_1683" x="7.61133" y="4" width="54.7773" height="62.5" filterUnits="userSpaceOnUse" color-interpolation-filters="sRGB">
<feFlood flood-opacity="0" result="BackgroundImageFix"/>
<feBlend mode="normal" in="SourceGraphic" in2="BackgroundImageFix" result="shape"/>
<feColorMatrix in="SourceAlpha" type="matrix" values="0 0 0 0 0 0 0 0 0 0 0 0 0 0 0 0 0 0 127 0" result="hardAlpha"/>
<feOffset dy="14"/>
<feGaussianBlur stdDeviation="8"/>
<feComposite in2="hardAlpha" operator="arithmetic" k2="-1" k3="1"/>
<feColorMatrix type="matrix" values="0 0 0 0 1 0 0 0 0 1 0 0 0 0 1 0 0 0 0.25 0"/>
<feBlend mode="normal" in2="shape" result="effect1_innerShadow_1258_1683"/>
</filter>
<linearGradient id="paint0_linear_1258_1683" x1="22.5" y1="17" x2="67.5" y2="61" gradientUnits="userSpaceOnUse">
<stop stop-color="#FB200C"/>
<stop offset="1" stop-color="#FF1500"/>
</linearGradient>
</defs>
</svg>
