<svg width="87" height="87" viewBox="0 0 87 87" fill="none" xmlns="http://www.w3.org/2000/svg">
<g filter="url(#filter0_i_1258_1716)">
<path d="M39.1946 7.45714C41.1081 4.14286 45.8919 4.14286 47.8054 7.45714L76.8667 57.7929C78.7802 61.1071 76.3883 65.25 72.5613 65.25H14.4387C10.6117 65.25 8.21978 61.1071 10.1333 57.7929L39.1946 7.45714Z" fill="#FBDF0C"/>
</g>
<path d="M39.7324 7.76758C41.4067 4.86764 45.5933 4.86764 47.2676 7.76758L76.3281 58.1035C78.0024 61.0035 75.91 64.6288 72.5615 64.6289H14.4385C11.09 64.6288 8.99759 61.0035 10.6719 58.1035L39.7324 7.76758Z" stroke="white" stroke-opacity="0.2" stroke-width="1.24286"/>
<path d="M41.7629 43.9335L41.4185 29.207H45.5663L45.2219 43.9335H41.7629ZM43.4999 51.5785C41.9875 51.5785 41.0142 50.6343 41.0142 49.1875C41.0142 47.7255 41.9875 46.7813 43.4999 46.7813C45.0123 46.7813 45.9856 47.7255 45.9856 49.1875C45.9856 50.6343 45.0123 51.5785 43.4999 51.5785Z" fill="#454545"/>
<defs>
<filter id="filter0_i_1258_1716" x="9.45996" y="4.97144" width="68.0801" height="77.6786" filterUnits="userSpaceOnUse" color-interpolation-filters="sRGB">
<feFlood flood-opacity="0" result="BackgroundImageFix"/>
<feBlend mode="normal" in="SourceGraphic" in2="BackgroundImageFix" result="shape"/>
<feColorMatrix in="SourceAlpha" type="matrix" values="0 0 0 0 0 0 0 0 0 0 0 0 0 0 0 0 0 0 127 0" result="hardAlpha"/>
<feOffset dy="17.4"/>
<feGaussianBlur stdDeviation="9.94286"/>
<feComposite in2="hardAlpha" operator="arithmetic" k2="-1" k3="1"/>
<feColorMatrix type="matrix" values="0 0 0 0 1 0 0 0 0 1 0 0 0 0 1 0 0 0 0.25 0"/>
<feBlend mode="normal" in2="shape" result="effect1_innerShadow_1258_1716"/>
</filter>
</defs>
</svg>
