<svg width="27" height="35" viewBox="0 0 27 35" fill="none" xmlns="http://www.w3.org/2000/svg">
<path d="M19.5341 8.00108C17.04 8.00108 14.9978 9.5243 13.6922 9.5243C12.3029 9.5243 10.4952 8.10152 8.31912 8.10152C4.18467 8.10152 0 11.5162 0 17.9439C0 21.9611 1.53995 26.196 3.4649 28.9244C5.1053 31.2344 6.54482 33.1258 8.62042 33.1258C10.6625 33.1258 11.5664 31.77 14.1107 31.77C16.6885 31.77 17.2744 33.0924 19.5341 33.0924C21.777 33.0924 23.2668 31.0335 24.6896 29.0081C26.2629 26.6815 26.9326 24.4218 26.9493 24.3045C26.8153 24.2711 22.5302 22.5135 22.5302 17.609C22.5302 13.3575 25.8947 11.4492 26.0955 11.2986C23.8693 8.10152 20.4713 8.00108 19.5341 8.00108ZM18.3624 5.28941C19.3834 4.05076 20.1031 2.36015 20.1031 0.652808C20.1031 0.418467 20.0864 0.184125 20.053 0C18.3791 0.0669547 16.3704 1.10475 15.182 2.5108C14.2279 3.58207 13.3575 5.28941 13.3575 6.99677C13.3575 7.26459 13.4077 7.51566 13.4244 7.59935C13.5248 7.61609 13.6922 7.64957 13.8764 7.64957C15.3661 7.64957 17.2408 6.64525 18.3624 5.28941Z" fill="white"/>
</svg>
