<svg width="365" height="45" viewBox="0 0 365 45" fill="none" xmlns="http://www.w3.org/2000/svg">
<rect x="21" width="344" height="8" rx="4" fill="#EAEAEA" fill-opacity="0.2"/>
<rect x="11" width="235" height="8" rx="4" fill="#EAEAEA" fill-opacity="0.5"/>
<rect width="171" height="8" rx="4" fill="#FC0D1C"/>
<path d="M0.5 41.1758V25.1758L13.5 33.1758L0.5 41.1758Z" fill="#EAEAEA"/>
<path fill-rule="evenodd" clip-rule="evenodd" d="M34.5 25.1758L45.1667 33.1758L34.5 41.1758V25.1758ZM50.5 25.1758H47.8333V41.1758H50.5V25.1758Z" fill="#EAEAEA"/>
<path fill-rule="evenodd" clip-rule="evenodd" d="M71.5 29.5534H76.3302L82.3679 23.5156V42.8364L76.3302 36.7986H71.5V29.5534ZM84.783 28.3458V38.0062L87.0557 34.976C87.8557 33.9093 87.8557 32.4427 87.0557 31.376L84.783 28.3458Z" fill="#EAEAEA"/>
<path d="M103.212 34.5254V34.4668H104.32V34.5254C104.32 34.9512 104.474 35.2871 104.783 35.5332C105.095 35.7793 105.511 35.9023 106.031 35.9023C106.55 35.9023 106.976 35.7324 107.308 35.3926C107.64 35.0488 107.806 34.5684 107.806 33.9512C107.806 33.334 107.64 32.8633 107.308 32.5391C106.976 32.2148 106.55 32.0527 106.031 32.0527C105.675 32.0527 105.361 32.1172 105.087 32.2461C104.814 32.375 104.558 32.5566 104.32 32.791L103.511 32.4043L103.945 28.1445H108.492V29.1699H104.882L104.63 31.5547C104.826 31.4336 105.058 31.3281 105.328 31.2383C105.601 31.1445 105.898 31.0977 106.218 31.0977C106.976 31.0977 107.619 31.3496 108.146 31.8535C108.677 32.3535 108.943 33.0527 108.943 33.9512C108.943 34.8496 108.667 35.5586 108.117 36.0781C107.566 36.5938 106.87 36.8516 106.031 36.8516C105.156 36.8516 104.466 36.6309 103.962 36.1895C103.462 35.748 103.212 35.1934 103.212 34.5254ZM110.651 36.0898C110.651 35.8945 110.713 35.7266 110.838 35.5859C110.967 35.4453 111.151 35.375 111.389 35.375C111.627 35.375 111.811 35.4453 111.94 35.5859C112.069 35.7266 112.133 35.8945 112.133 36.0898C112.133 36.2852 112.069 36.4531 111.94 36.5938C111.811 36.7344 111.627 36.8047 111.389 36.8047C111.151 36.8047 110.967 36.7344 110.838 36.5938C110.713 36.4531 110.651 36.2852 110.651 36.0898ZM110.651 31.0566C110.651 30.8613 110.713 30.6934 110.838 30.5527C110.967 30.4121 111.151 30.3418 111.389 30.3418C111.627 30.3418 111.811 30.4121 111.94 30.5527C112.069 30.6934 112.133 30.8613 112.133 31.0566C112.133 31.252 112.069 31.4199 111.94 31.5605C111.811 31.7012 111.627 31.7715 111.389 31.7715C111.151 31.7715 110.967 31.7012 110.838 31.5605C110.713 31.4199 110.651 31.252 110.651 31.0566ZM113.911 33.916V30.9043C113.911 30.0254 114.157 29.3164 114.65 28.7773C115.146 28.2383 115.833 27.9688 116.712 27.9688C117.583 27.9688 118.269 28.2383 118.769 28.7773C119.269 29.3164 119.519 30.0254 119.519 30.9043V33.916C119.519 34.7988 119.269 35.5098 118.769 36.0488C118.269 36.584 117.583 36.8516 116.712 36.8516C115.833 36.8516 115.146 36.584 114.65 36.0488C114.157 35.5098 113.911 34.7988 113.911 33.916ZM115.071 33.9746C115.071 34.5332 115.204 34.9941 115.47 35.3574C115.739 35.7168 116.153 35.8965 116.712 35.8965C117.271 35.8965 117.685 35.7168 117.954 35.3574C118.224 34.9941 118.359 34.5332 118.359 33.9746V30.8457C118.359 30.2871 118.224 29.8281 117.954 29.4688C117.685 29.1055 117.271 28.9238 116.712 28.9238C116.153 28.9238 115.739 29.1055 115.47 29.4688C115.204 29.8281 115.071 30.2871 115.071 30.8457V33.9746ZM121.994 36.6758L125.305 29.1172H120.693V28.1445H126.512V28.7891L123.172 36.6758H121.994ZM129.681 37.4082L133.303 28.1445H134.351L130.73 37.4082H129.681ZM140.134 36.6758V29.4043L137.931 30.3125V29.1992L141.078 28.0273H141.283V36.6758H140.134ZM144.461 34.5254V34.4668H145.569V34.5254C145.569 34.9512 145.723 35.2871 146.032 35.5332C146.344 35.7793 146.76 35.9023 147.28 35.9023C147.799 35.9023 148.225 35.7324 148.557 35.3926C148.889 35.0488 149.055 34.5684 149.055 33.9512C149.055 33.334 148.889 32.8633 148.557 32.5391C148.225 32.2148 147.799 32.0527 147.28 32.0527C146.924 32.0527 146.61 32.1172 146.336 32.2461C146.063 32.375 145.807 32.5566 145.569 32.791L144.76 32.4043L145.194 28.1445H149.741V29.1699H146.131L145.879 31.5547C146.075 31.4336 146.307 31.3281 146.577 31.2383C146.85 31.1445 147.147 31.0977 147.467 31.0977C148.225 31.0977 148.868 31.3496 149.395 31.8535C149.926 32.3535 150.192 33.0527 150.192 33.9512C150.192 34.8496 149.916 35.5586 149.366 36.0781C148.815 36.5938 148.12 36.8516 147.28 36.8516C146.405 36.8516 145.715 36.6309 145.211 36.1895C144.711 35.748 144.461 35.1934 144.461 34.5254ZM151.9 36.0898C151.9 35.8945 151.962 35.7266 152.087 35.5859C152.216 35.4453 152.4 35.375 152.638 35.375C152.876 35.375 153.06 35.4453 153.189 35.5859C153.318 35.7266 153.382 35.8945 153.382 36.0898C153.382 36.2852 153.318 36.4531 153.189 36.5938C153.06 36.7344 152.876 36.8047 152.638 36.8047C152.4 36.8047 152.216 36.7344 152.087 36.5938C151.962 36.4531 151.9 36.2852 151.9 36.0898ZM151.9 31.0566C151.9 30.8613 151.962 30.6934 152.087 30.5527C152.216 30.4121 152.4 30.3418 152.638 30.3418C152.876 30.3418 153.06 30.4121 153.189 30.5527C153.318 30.6934 153.382 30.8613 153.382 31.0566C153.382 31.252 153.318 31.4199 153.189 31.5605C153.06 31.7012 152.876 31.7715 152.638 31.7715C152.4 31.7715 152.216 31.7012 152.087 31.5605C151.962 31.4199 151.9 31.252 151.9 31.0566ZM155.16 36.6758V35.8203L158.283 32.5566C158.69 32.1387 158.998 31.7656 159.209 31.4375C159.424 31.1055 159.531 30.7461 159.531 30.3594C159.531 29.9727 159.397 29.6367 159.127 29.3516C158.858 29.0664 158.483 28.9238 158.002 28.9238C157.522 28.9238 157.117 29.0781 156.789 29.3867C156.461 29.6914 156.297 30.1133 156.297 30.6523V30.7109H155.154V30.6523C155.154 29.8711 155.426 29.2285 155.969 28.7246C156.516 28.2207 157.194 27.9688 158.002 27.9688C158.803 27.9688 159.447 28.2012 159.936 28.666C160.428 29.1309 160.674 29.6758 160.674 30.3008C160.674 30.8594 160.516 31.3652 160.199 31.8184C159.883 32.2676 159.494 32.7266 159.033 33.1953L156.602 35.6914H160.908V36.6758H155.16ZM162.083 34.4141C162.083 33.9062 162.226 33.4727 162.511 33.1133C162.796 32.7539 163.161 32.4863 163.607 32.3105V32.2871C163.263 32.1191 162.968 31.8652 162.722 31.5254C162.48 31.1816 162.358 30.7754 162.358 30.3066C162.358 29.6035 162.607 29.0391 163.103 28.6133C163.603 28.1836 164.212 27.9688 164.931 27.9688C165.649 27.9688 166.255 28.1816 166.747 28.6074C167.243 29.0332 167.491 29.5996 167.491 30.3066C167.491 30.7754 167.37 31.1816 167.128 31.5254C166.886 31.8652 166.593 32.1191 166.249 32.2871V32.3105C166.694 32.4863 167.058 32.7539 167.339 33.1133C167.624 33.4727 167.767 33.9062 167.767 34.4141C167.767 35.1875 167.493 35.7871 166.946 36.2129C166.399 36.6387 165.728 36.8516 164.931 36.8516C164.134 36.8516 163.46 36.6387 162.909 36.2129C162.358 35.7871 162.083 35.1875 162.083 34.4141ZM163.214 34.3496C163.214 34.8145 163.37 35.1895 163.683 35.4746C163.999 35.7598 164.415 35.9023 164.931 35.9023C165.446 35.9023 165.86 35.7598 166.173 35.4746C166.485 35.1895 166.642 34.8145 166.642 34.3496C166.642 33.8848 166.485 33.5078 166.173 33.2188C165.86 32.9297 165.446 32.7852 164.931 32.7852C164.415 32.7852 163.999 32.9297 163.683 33.2188C163.37 33.5078 163.214 33.8848 163.214 34.3496ZM163.466 30.3711C163.466 30.7969 163.601 31.1484 163.87 31.4258C164.14 31.6992 164.493 31.8359 164.931 31.8359C165.368 31.8359 165.72 31.6992 165.985 31.4258C166.255 31.1484 166.39 30.7969 166.39 30.3711C166.39 29.9453 166.255 29.5977 165.985 29.3281C165.72 29.0547 165.368 28.918 164.931 28.918C164.493 28.918 164.14 29.0547 163.87 29.3281C163.601 29.5977 163.466 29.9453 163.466 30.3711Z" fill="#EAEAEA"/>
<path fill-rule="evenodd" clip-rule="evenodd" d="M343.976 23C343.976 22.4477 344.423 22 344.976 22H348.563C349.116 22 349.563 22.4477 349.563 23V24.5636C349.563 24.9874 349.833 25.3598 350.219 25.5344C350.505 25.6634 350.781 25.8079 351.048 25.9668C351.413 26.1836 351.873 26.1912 352.22 25.9479L353.502 25.0503C353.955 24.7335 354.578 24.8435 354.895 25.2959L356.953 28.2348C357.27 28.6872 357.16 29.3108 356.707 29.6276L355.426 30.5247C355.079 30.7677 354.929 31.2021 355.007 31.6184C355.102 32.1229 355.151 32.6435 355.151 33.1756C355.151 33.7076 355.102 34.228 355.007 34.7325C354.929 35.1489 355.079 35.5832 355.426 35.8261L356.707 36.7233C357.16 37.0401 357.27 37.6637 356.953 38.1161L354.895 41.055C354.578 41.5074 353.955 41.6174 353.502 41.3006L352.221 40.403C351.873 40.1598 351.413 40.1673 351.049 40.3842C350.781 40.5432 350.505 40.6878 350.219 40.8168C349.833 40.9915 349.563 41.3639 349.563 41.7877V43.3513C349.563 43.9035 349.116 44.3513 348.563 44.3513H344.976C344.423 44.3513 343.976 43.9035 343.976 43.3513V41.7877C343.976 41.3639 343.706 40.9915 343.32 40.8168C343.034 40.6878 342.758 40.5432 342.49 40.3842C342.126 40.1673 341.666 40.1598 341.318 40.4031L340.037 41.3005C339.584 41.6174 338.961 41.5074 338.644 41.055L336.586 38.1161C336.269 37.6637 336.379 37.0401 336.832 36.7233L338.113 35.8261C338.46 35.5832 338.61 35.1489 338.532 34.7326C338.437 34.2281 338.388 33.7076 338.388 33.1756C338.388 32.6435 338.437 32.1229 338.532 31.6184C338.61 31.2021 338.46 30.7677 338.113 30.5247L336.832 29.6276C336.379 29.3108 336.269 28.6872 336.586 28.2348L338.644 25.2959C338.961 24.8435 339.584 24.7335 340.037 25.0503L341.319 25.9479C341.666 26.1912 342.126 26.1836 342.491 25.9668C342.758 25.8079 343.035 25.6634 343.32 25.5344C343.706 25.3598 343.976 24.9874 343.976 24.5636V23ZM346.77 35.9695C348.313 35.9695 349.563 34.7187 349.563 33.1756C349.563 31.6326 348.313 30.3817 346.77 30.3817C345.226 30.3817 343.976 31.6326 343.976 33.1756C343.976 34.7187 345.226 35.9695 346.77 35.9695Z" fill="#EAEAEA"/>
<rect x="346.34" y="22" width="18.1604" height="12.5726" rx="1" fill="#EE1A26"/>
<g filter="url(#filter0_d_992_3665)">
<path d="M349.134 24.7949H350.53V27.5888H353.324V24.7949H354.721V31.7797H353.324V28.9858H350.53V31.7797H349.134V24.7949Z" fill="#F1F2F1"/>
<path d="M356.118 24.7949H360.309V26.1919H357.515V30.3827H360.309V31.7797H356.118V24.7949Z" fill="#F1F2F1"/>
<path d="M360.309 30.3827V26.1919H361.706V30.3827H360.309Z" fill="#F1F2F1"/>
</g>
<defs>
<filter id="filter0_d_992_3665" x="349.134" y="24.7949" width="12.5726" height="7.98438" filterUnits="userSpaceOnUse" color-interpolation-filters="sRGB">
<feFlood flood-opacity="0" result="BackgroundImageFix"/>
<feColorMatrix in="SourceAlpha" type="matrix" values="0 0 0 0 0 0 0 0 0 0 0 0 0 0 0 0 0 0 127 0" result="hardAlpha"/>
<feOffset dy="1"/>
<feColorMatrix type="matrix" values="0 0 0 0 0.337255 0 0 0 0 0.0392157 0 0 0 0 0.0588235 0 0 0 1 0"/>
<feBlend mode="normal" in2="BackgroundImageFix" result="effect1_dropShadow_992_3665"/>
<feBlend mode="normal" in="SourceGraphic" in2="effect1_dropShadow_992_3665" result="shape"/>
</filter>
</defs>
</svg>
