<svg width="365" height="48" viewBox="0 0 365 48" fill="none" xmlns="http://www.w3.org/2000/svg">
<rect width="365" height="11" rx="3" fill="#EAEAEA" fill-opacity="0.2"/>
<rect width="195" height="11" rx="3" fill="#EAEAEA" fill-opacity="0.5"/>
<rect width="165" height="11" rx="3" fill="#FC9C0D"/>
<path d="M8 44.1758V28.1758L21 36.1758L8 44.1758Z" fill="#EAEAEA"/>
<path fill-rule="evenodd" clip-rule="evenodd" d="M42 28.1758L52.6667 36.1758L42 44.1758V28.1758ZM58 28.1758H55.3333V44.1758H58V28.1758Z" fill="#EAEAEA"/>
<path fill-rule="evenodd" clip-rule="evenodd" d="M79 32.5534H83.8302L89.8679 26.5156V45.8364L83.8302 39.7986H79V32.5534ZM92.283 31.3458V41.0062L94.5557 37.976C95.3557 36.9093 95.3557 35.4427 94.5557 34.376L92.283 31.3458Z" fill="#EAEAEA"/>
<path d="M110.712 37.5254V37.4668H111.82V37.5254C111.82 37.9512 111.974 38.2871 112.283 38.5332C112.595 38.7793 113.011 38.9023 113.531 38.9023C114.05 38.9023 114.476 38.7324 114.808 38.3926C115.14 38.0488 115.306 37.5684 115.306 36.9512C115.306 36.334 115.14 35.8633 114.808 35.5391C114.476 35.2148 114.05 35.0527 113.531 35.0527C113.175 35.0527 112.861 35.1172 112.587 35.2461C112.314 35.375 112.058 35.5566 111.82 35.791L111.011 35.4043L111.445 31.1445H115.992V32.1699H112.382L112.13 34.5547C112.326 34.4336 112.558 34.3281 112.828 34.2383C113.101 34.1445 113.398 34.0977 113.718 34.0977C114.476 34.0977 115.119 34.3496 115.646 34.8535C116.177 35.3535 116.443 36.0527 116.443 36.9512C116.443 37.8496 116.167 38.5586 115.617 39.0781C115.066 39.5938 114.37 39.8516 113.531 39.8516C112.656 39.8516 111.966 39.6309 111.462 39.1895C110.962 38.748 110.712 38.1934 110.712 37.5254ZM118.151 39.0898C118.151 38.8945 118.213 38.7266 118.338 38.5859C118.467 38.4453 118.651 38.375 118.889 38.375C119.127 38.375 119.311 38.4453 119.44 38.5859C119.569 38.7266 119.633 38.8945 119.633 39.0898C119.633 39.2852 119.569 39.4531 119.44 39.5938C119.311 39.7344 119.127 39.8047 118.889 39.8047C118.651 39.8047 118.467 39.7344 118.338 39.5938C118.213 39.4531 118.151 39.2852 118.151 39.0898ZM118.151 34.0566C118.151 33.8613 118.213 33.6934 118.338 33.5527C118.467 33.4121 118.651 33.3418 118.889 33.3418C119.127 33.3418 119.311 33.4121 119.44 33.5527C119.569 33.6934 119.633 33.8613 119.633 34.0566C119.633 34.252 119.569 34.4199 119.44 34.5605C119.311 34.7012 119.127 34.7715 118.889 34.7715C118.651 34.7715 118.467 34.7012 118.338 34.5605C118.213 34.4199 118.151 34.252 118.151 34.0566ZM121.411 36.916V33.9043C121.411 33.0254 121.657 32.3164 122.15 31.7773C122.646 31.2383 123.333 30.9688 124.212 30.9688C125.083 30.9688 125.769 31.2383 126.269 31.7773C126.769 32.3164 127.019 33.0254 127.019 33.9043V36.916C127.019 37.7988 126.769 38.5098 126.269 39.0488C125.769 39.584 125.083 39.8516 124.212 39.8516C123.333 39.8516 122.646 39.584 122.15 39.0488C121.657 38.5098 121.411 37.7988 121.411 36.916ZM122.571 36.9746C122.571 37.5332 122.704 37.9941 122.97 38.3574C123.239 38.7168 123.653 38.8965 124.212 38.8965C124.771 38.8965 125.185 38.7168 125.454 38.3574C125.724 37.9941 125.859 37.5332 125.859 36.9746V33.8457C125.859 33.2871 125.724 32.8281 125.454 32.4688C125.185 32.1055 124.771 31.9238 124.212 31.9238C123.653 31.9238 123.239 32.1055 122.97 32.4688C122.704 32.8281 122.571 33.2871 122.571 33.8457V36.9746ZM129.494 39.6758L132.805 32.1172H128.193V31.1445H134.012V31.7891L130.672 39.6758H129.494ZM137.181 40.4082L140.803 31.1445H141.851L138.23 40.4082H137.181ZM147.634 39.6758V32.4043L145.431 33.3125V32.1992L148.578 31.0273H148.783V39.6758H147.634ZM151.961 37.5254V37.4668H153.069V37.5254C153.069 37.9512 153.223 38.2871 153.532 38.5332C153.844 38.7793 154.26 38.9023 154.78 38.9023C155.299 38.9023 155.725 38.7324 156.057 38.3926C156.389 38.0488 156.555 37.5684 156.555 36.9512C156.555 36.334 156.389 35.8633 156.057 35.5391C155.725 35.2148 155.299 35.0527 154.78 35.0527C154.424 35.0527 154.11 35.1172 153.836 35.2461C153.563 35.375 153.307 35.5566 153.069 35.791L152.26 35.4043L152.694 31.1445H157.241V32.1699H153.631L153.379 34.5547C153.575 34.4336 153.807 34.3281 154.077 34.2383C154.35 34.1445 154.647 34.0977 154.967 34.0977C155.725 34.0977 156.368 34.3496 156.895 34.8535C157.426 35.3535 157.692 36.0527 157.692 36.9512C157.692 37.8496 157.416 38.5586 156.866 39.0781C156.315 39.5938 155.62 39.8516 154.78 39.8516C153.905 39.8516 153.215 39.6309 152.711 39.1895C152.211 38.748 151.961 38.1934 151.961 37.5254ZM159.4 39.0898C159.4 38.8945 159.462 38.7266 159.587 38.5859C159.716 38.4453 159.9 38.375 160.138 38.375C160.376 38.375 160.56 38.4453 160.689 38.5859C160.818 38.7266 160.882 38.8945 160.882 39.0898C160.882 39.2852 160.818 39.4531 160.689 39.5938C160.56 39.7344 160.376 39.8047 160.138 39.8047C159.9 39.8047 159.716 39.7344 159.587 39.5938C159.462 39.4531 159.4 39.2852 159.4 39.0898ZM159.4 34.0566C159.4 33.8613 159.462 33.6934 159.587 33.5527C159.716 33.4121 159.9 33.3418 160.138 33.3418C160.376 33.3418 160.56 33.4121 160.689 33.5527C160.818 33.6934 160.882 33.8613 160.882 34.0566C160.882 34.252 160.818 34.4199 160.689 34.5605C160.56 34.7012 160.376 34.7715 160.138 34.7715C159.9 34.7715 159.716 34.7012 159.587 34.5605C159.462 34.4199 159.4 34.252 159.4 34.0566ZM162.66 39.6758V38.8203L165.783 35.5566C166.19 35.1387 166.498 34.7656 166.709 34.4375C166.924 34.1055 167.031 33.7461 167.031 33.3594C167.031 32.9727 166.897 32.6367 166.627 32.3516C166.358 32.0664 165.983 31.9238 165.502 31.9238C165.022 31.9238 164.617 32.0781 164.289 32.3867C163.961 32.6914 163.797 33.1133 163.797 33.6523V33.7109H162.654V33.6523C162.654 32.8711 162.926 32.2285 163.469 31.7246C164.016 31.2207 164.694 30.9688 165.502 30.9688C166.303 30.9688 166.947 31.2012 167.436 31.666C167.928 32.1309 168.174 32.6758 168.174 33.3008C168.174 33.8594 168.016 34.3652 167.699 34.8184C167.383 35.2676 166.994 35.7266 166.533 36.1953L164.102 38.6914H168.408V39.6758H162.66ZM169.583 37.4141C169.583 36.9062 169.726 36.4727 170.011 36.1133C170.296 35.7539 170.661 35.4863 171.106 35.3105V35.2871C170.763 35.1191 170.468 34.8652 170.222 34.5254C169.98 34.1816 169.858 33.7754 169.858 33.3066C169.858 32.6035 170.106 32.0391 170.603 31.6133C171.103 31.1836 171.712 30.9688 172.431 30.9688C173.149 30.9688 173.755 31.1816 174.247 31.6074C174.743 32.0332 174.991 32.5996 174.991 33.3066C174.991 33.7754 174.87 34.1816 174.628 34.5254C174.386 34.8652 174.093 35.1191 173.749 35.2871V35.3105C174.194 35.4863 174.558 35.7539 174.839 36.1133C175.124 36.4727 175.267 36.9062 175.267 37.4141C175.267 38.1875 174.993 38.7871 174.446 39.2129C173.899 39.6387 173.228 39.8516 172.431 39.8516C171.634 39.8516 170.96 39.6387 170.409 39.2129C169.858 38.7871 169.583 38.1875 169.583 37.4141ZM170.714 37.3496C170.714 37.8145 170.87 38.1895 171.183 38.4746C171.499 38.7598 171.915 38.9023 172.431 38.9023C172.946 38.9023 173.36 38.7598 173.673 38.4746C173.985 38.1895 174.142 37.8145 174.142 37.3496C174.142 36.8848 173.985 36.5078 173.673 36.2188C173.36 35.9297 172.946 35.7852 172.431 35.7852C171.915 35.7852 171.499 35.9297 171.183 36.2188C170.87 36.5078 170.714 36.8848 170.714 37.3496ZM170.966 33.3711C170.966 33.7969 171.101 34.1484 171.37 34.4258C171.64 34.6992 171.993 34.8359 172.431 34.8359C172.868 34.8359 173.22 34.6992 173.485 34.4258C173.755 34.1484 173.89 33.7969 173.89 33.3711C173.89 32.9453 173.755 32.5977 173.485 32.3281C173.22 32.0547 172.868 31.918 172.431 31.918C171.993 31.918 171.64 32.0547 171.37 32.3281C171.101 32.5977 170.966 32.9453 170.966 33.3711Z" fill="#EAEAEA"/>
<path fill-rule="evenodd" clip-rule="evenodd" d="M343.842 26C343.842 25.4477 344.289 25 344.842 25H348.429C348.982 25 349.429 25.4477 349.429 26V27.5636C349.429 27.9874 349.699 28.3598 350.085 28.5344C350.37 28.6634 350.647 28.8079 350.914 28.9668C351.279 29.1836 351.739 29.1912 352.086 28.9479L353.368 28.0503C353.821 27.7335 354.444 27.8435 354.761 28.2959L356.819 31.2348C357.136 31.6872 357.026 32.3108 356.573 32.6276L355.292 33.5247C354.945 33.7677 354.795 34.2021 354.873 34.6184C354.968 35.1229 355.017 35.6435 355.017 36.1756C355.017 36.7076 354.968 37.228 354.873 37.7325C354.795 38.1489 354.945 38.5832 355.292 38.8261L356.573 39.7233C357.026 40.0401 357.136 40.6637 356.819 41.1161L354.761 44.055C354.444 44.5074 353.821 44.6174 353.368 44.3006L352.087 43.403C351.739 43.1598 351.279 43.1673 350.915 43.3842C350.647 43.5432 350.371 43.6878 350.085 43.8168C349.699 43.9915 349.429 44.3639 349.429 44.7877V46.3513C349.429 46.9035 348.982 47.3513 348.429 47.3513H344.842C344.289 47.3513 343.842 46.9035 343.842 46.3513V44.7877C343.842 44.3639 343.572 43.9915 343.186 43.8168C342.9 43.6878 342.624 43.5432 342.356 43.3842C341.992 43.1673 341.532 43.1598 341.184 43.4031L339.903 44.3005C339.45 44.6174 338.827 44.5074 338.51 44.055L336.452 41.1161C336.135 40.6637 336.245 40.0401 336.698 39.7233L337.979 38.8261C338.326 38.5832 338.476 38.1489 338.398 37.7326C338.303 37.2281 338.254 36.7076 338.254 36.1756C338.254 35.6435 338.303 35.1229 338.398 34.6184C338.476 34.2021 338.326 33.7677 337.979 33.5247L336.698 32.6276C336.245 32.3108 336.135 31.6872 336.452 31.2348L338.51 28.2959C338.827 27.8435 339.45 27.7335 339.903 28.0503L341.184 28.9479C341.532 29.1912 341.992 29.1836 342.357 28.9668C342.624 28.8079 342.9 28.6634 343.186 28.5344C343.572 28.3598 343.842 27.9874 343.842 27.5636V26ZM346.635 38.9695C348.178 38.9695 349.429 37.7187 349.429 36.1756C349.429 34.6326 348.178 33.3817 346.635 33.3817C345.092 33.3817 343.842 34.6326 343.842 36.1756C343.842 37.7187 345.092 38.9695 346.635 38.9695Z" fill="#EAEAEA"/>
</svg>
