<svg width="333" height="44" viewBox="0 0 333 44" fill="none" xmlns="http://www.w3.org/2000/svg">
<rect width="333" height="6" rx="3" fill="#D0D0D0"/>
<rect width="52" height="6" rx="3" fill="#007AFF"/>
<path d="M0 41.6602V25.6602L13 33.6602L0 41.6602Z" fill="black"/>
<path fill-rule="evenodd" clip-rule="evenodd" d="M34 25.6602L44.6667 33.6602L34 41.6602V25.6602ZM50 25.6602H47.3333V41.6602H50V25.6602Z" fill="black"/>
<path fill-rule="evenodd" clip-rule="evenodd" d="M71 30.0377H75.8302L81.8679 24V43.3208L75.8302 37.283H71V30.0377ZM84.283 28.8302V38.4906L86.5557 35.4604C87.3557 34.3937 87.3557 32.927 86.5557 31.8604L84.283 28.8302Z" fill="black"/>
<path d="M267.557 37.1699V37.1113H268.664V37.1699C268.664 37.5957 268.818 37.9316 269.127 38.1777C269.439 38.4238 269.855 38.5469 270.375 38.5469C270.895 38.5469 271.32 38.377 271.652 38.0371C271.984 37.6934 272.15 37.2129 272.15 36.5957C272.15 35.9785 271.984 35.5078 271.652 35.1836C271.32 34.8594 270.895 34.6973 270.375 34.6973C270.02 34.6973 269.705 34.7617 269.432 34.8906C269.158 35.0195 268.902 35.2012 268.664 35.4355L267.855 35.0488L268.289 30.7891H272.836V31.8145H269.227L268.975 34.1992C269.17 34.0781 269.402 33.9727 269.672 33.8828C269.945 33.7891 270.242 33.7422 270.562 33.7422C271.32 33.7422 271.963 33.9941 272.49 34.498C273.021 34.998 273.287 35.6973 273.287 36.5957C273.287 37.4941 273.012 38.2031 272.461 38.7227C271.91 39.2383 271.215 39.4961 270.375 39.4961C269.5 39.4961 268.811 39.2754 268.307 38.834C267.807 38.3926 267.557 37.8379 267.557 37.1699ZM274.995 38.7344C274.995 38.5391 275.057 38.3711 275.182 38.2305C275.311 38.0898 275.495 38.0195 275.733 38.0195C275.972 38.0195 276.155 38.0898 276.284 38.2305C276.413 38.3711 276.477 38.5391 276.477 38.7344C276.477 38.9297 276.413 39.0977 276.284 39.2383C276.155 39.3789 275.972 39.4492 275.733 39.4492C275.495 39.4492 275.311 39.3789 275.182 39.2383C275.057 39.0977 274.995 38.9297 274.995 38.7344ZM274.995 33.7012C274.995 33.5059 275.057 33.3379 275.182 33.1973C275.311 33.0566 275.495 32.9863 275.733 32.9863C275.972 32.9863 276.155 33.0566 276.284 33.1973C276.413 33.3379 276.477 33.5059 276.477 33.7012C276.477 33.8965 276.413 34.0645 276.284 34.2051C276.155 34.3457 275.972 34.416 275.733 34.416C275.495 34.416 275.311 34.3457 275.182 34.2051C275.057 34.0645 274.995 33.8965 274.995 33.7012ZM278.256 36.5605V33.5488C278.256 32.6699 278.502 31.9609 278.994 31.4219C279.49 30.8828 280.177 30.6133 281.056 30.6133C281.927 30.6133 282.613 30.8828 283.113 31.4219C283.613 31.9609 283.863 32.6699 283.863 33.5488V36.5605C283.863 37.4434 283.613 38.1543 283.113 38.6934C282.613 39.2285 281.927 39.4961 281.056 39.4961C280.177 39.4961 279.49 39.2285 278.994 38.6934C278.502 38.1543 278.256 37.4434 278.256 36.5605ZM279.416 36.6191C279.416 37.1777 279.549 37.6387 279.814 38.002C280.084 38.3613 280.498 38.541 281.056 38.541C281.615 38.541 282.029 38.3613 282.299 38.002C282.568 37.6387 282.703 37.1777 282.703 36.6191V33.4902C282.703 32.9316 282.568 32.4727 282.299 32.1133C282.029 31.75 281.615 31.5684 281.056 31.5684C280.498 31.5684 280.084 31.75 279.814 32.1133C279.549 32.4727 279.416 32.9316 279.416 33.4902V36.6191ZM286.339 39.3203L289.649 31.7617H285.038V30.7891H290.856V31.4336L287.516 39.3203H286.339ZM294.026 40.0527L297.647 30.7891H298.696L295.075 40.0527H294.026ZM304.479 39.3203V32.0488L302.276 32.957V31.8438L305.422 30.6719H305.627V39.3203H304.479ZM308.806 37.1699V37.1113H309.913V37.1699C309.913 37.5957 310.067 37.9316 310.376 38.1777C310.689 38.4238 311.105 38.5469 311.624 38.5469C312.144 38.5469 312.569 38.377 312.901 38.0371C313.233 37.6934 313.399 37.2129 313.399 36.5957C313.399 35.9785 313.233 35.5078 312.901 35.1836C312.569 34.8594 312.144 34.6973 311.624 34.6973C311.269 34.6973 310.954 34.7617 310.681 34.8906C310.407 35.0195 310.151 35.2012 309.913 35.4355L309.105 35.0488L309.538 30.7891H314.085V31.8145H310.476L310.224 34.1992C310.419 34.0781 310.651 33.9727 310.921 33.8828C311.194 33.7891 311.491 33.7422 311.812 33.7422C312.569 33.7422 313.212 33.9941 313.739 34.498C314.271 34.998 314.536 35.6973 314.536 36.5957C314.536 37.4941 314.261 38.2031 313.71 38.7227C313.159 39.2383 312.464 39.4961 311.624 39.4961C310.749 39.4961 310.06 39.2754 309.556 38.834C309.056 38.3926 308.806 37.8379 308.806 37.1699ZM316.244 38.7344C316.244 38.5391 316.307 38.3711 316.432 38.2305C316.56 38.0898 316.744 38.0195 316.982 38.0195C317.221 38.0195 317.404 38.0898 317.533 38.2305C317.662 38.3711 317.726 38.5391 317.726 38.7344C317.726 38.9297 317.662 39.0977 317.533 39.2383C317.404 39.3789 317.221 39.4492 316.982 39.4492C316.744 39.4492 316.56 39.3789 316.432 39.2383C316.307 39.0977 316.244 38.9297 316.244 38.7344ZM316.244 33.7012C316.244 33.5059 316.307 33.3379 316.432 33.1973C316.56 33.0566 316.744 32.9863 316.982 32.9863C317.221 32.9863 317.404 33.0566 317.533 33.1973C317.662 33.3379 317.726 33.5059 317.726 33.7012C317.726 33.8965 317.662 34.0645 317.533 34.2051C317.404 34.3457 317.221 34.416 316.982 34.416C316.744 34.416 316.56 34.3457 316.432 34.2051C316.307 34.0645 316.244 33.8965 316.244 33.7012ZM319.505 39.3203V38.4648L322.628 35.2012C323.034 34.7832 323.343 34.4102 323.554 34.082C323.768 33.75 323.876 33.3906 323.876 33.0039C323.876 32.6172 323.741 32.2812 323.471 31.9961C323.202 31.7109 322.827 31.5684 322.346 31.5684C321.866 31.5684 321.462 31.7227 321.134 32.0312C320.805 32.3359 320.641 32.7578 320.641 33.2969V33.3555H319.499V33.2969C319.499 32.5156 319.77 31.873 320.313 31.3691C320.86 30.8652 321.538 30.6133 322.346 30.6133C323.147 30.6133 323.792 30.8457 324.28 31.3105C324.772 31.7754 325.018 32.3203 325.018 32.9453C325.018 33.5039 324.86 34.0098 324.544 34.4629C324.227 34.9121 323.839 35.3711 323.378 35.8398L320.946 38.3359H325.253V39.3203H319.505ZM326.427 37.0586C326.427 36.5508 326.57 36.1172 326.855 35.7578C327.14 35.3984 327.506 35.1309 327.951 34.9551V34.9316C327.607 34.7637 327.312 34.5098 327.066 34.1699C326.824 33.8262 326.703 33.4199 326.703 32.9512C326.703 32.248 326.951 31.6836 327.447 31.2578C327.947 30.8281 328.556 30.6133 329.275 30.6133C329.994 30.6133 330.599 30.8262 331.091 31.252C331.588 31.6777 331.836 32.2441 331.836 32.9512C331.836 33.4199 331.715 33.8262 331.472 34.1699C331.23 34.5098 330.937 34.7637 330.593 34.9316V34.9551C331.039 35.1309 331.402 35.3984 331.683 35.7578C331.968 36.1172 332.111 36.5508 332.111 37.0586C332.111 37.832 331.838 38.4316 331.291 38.8574C330.744 39.2832 330.072 39.4961 329.275 39.4961C328.478 39.4961 327.804 39.2832 327.254 38.8574C326.703 38.4316 326.427 37.832 326.427 37.0586ZM327.558 36.9941C327.558 37.459 327.715 37.834 328.027 38.1191C328.343 38.4043 328.759 38.5469 329.275 38.5469C329.791 38.5469 330.205 38.4043 330.517 38.1191C330.83 37.834 330.986 37.459 330.986 36.9941C330.986 36.5293 330.83 36.1523 330.517 35.8633C330.205 35.5742 329.791 35.4297 329.275 35.4297C328.759 35.4297 328.343 35.5742 328.027 35.8633C327.715 36.1523 327.558 36.5293 327.558 36.9941ZM327.81 33.0156C327.81 33.4414 327.945 33.793 328.215 34.0703C328.484 34.3438 328.838 34.4805 329.275 34.4805C329.713 34.4805 330.064 34.3438 330.33 34.0703C330.599 33.793 330.734 33.4414 330.734 33.0156C330.734 32.5898 330.599 32.2422 330.33 31.9727C330.064 31.6992 329.713 31.5625 329.275 31.5625C328.838 31.5625 328.484 31.6992 328.215 31.9727C327.945 32.2422 327.81 32.5898 327.81 33.0156Z" fill="black"/>
</svg>
