<svg width="402" height="68" viewBox="0 0 402 68" fill="none" xmlns="http://www.w3.org/2000/svg">
<path d="M85.5883 22.353C85.219 22.608 85.219 23.1536 85.5883 23.4086L90.5527 26.8364C90.9781 27.1302 91.5585 26.8256 91.5585 26.3086V24.324C96.3467 25.5081 99.8966 29.833 99.8966 34.9871C99.8966 41.0533 94.979 45.9709 88.9128 45.9709C82.8466 45.9709 77.929 41.0533 77.929 34.9871C77.929 31.2814 79.7628 28.0039 82.5783 26.0126C83.1567 25.6035 83.2939 24.803 82.8848 24.2246C82.4757 23.6462 81.6752 23.5089 81.0968 23.918C77.6307 26.3696 75.3634 30.4135 75.3634 34.9871C75.3634 42.4702 81.4297 48.5364 88.9128 48.5364C96.3959 48.5364 102.462 42.4702 102.462 34.9871C102.462 28.4094 97.775 22.9264 91.5585 21.6959V19.453C91.5585 18.936 90.9781 18.6315 90.5527 18.9252L85.5883 22.353Z" fill="white"/>
<path fill-rule="evenodd" clip-rule="evenodd" d="M89.5504 31.5755C90.0964 30.6202 90.9972 29.7758 92.1999 29.7758C93.4026 29.7758 94.3034 30.6202 94.8493 31.5755C95.4108 32.5581 95.7275 33.8514 95.7275 35.2276C95.7275 36.6038 95.4108 37.897 94.8493 38.8796C94.3034 39.835 93.4026 40.6794 92.1999 40.6794C90.9972 40.6794 90.0964 39.835 89.5504 38.8796C88.989 37.897 88.6722 36.6038 88.6722 35.2276C88.6722 33.8514 88.989 32.5581 89.5504 31.5755ZM91.2211 32.5302C90.854 33.1726 90.5964 34.1242 90.5964 35.2276C90.5964 36.331 90.854 37.2826 91.2211 37.925C91.6037 38.5946 91.9857 38.7552 92.1999 38.7552C92.4141 38.7552 92.7961 38.5946 93.1787 37.925C93.5458 37.2826 93.8034 36.331 93.8034 35.2276C93.8034 34.1242 93.5458 33.1726 93.1787 32.5302C92.7961 31.8606 92.4141 31.6999 92.1999 31.6999C91.9857 31.6999 91.6037 31.8606 91.2211 32.5302Z" fill="white"/>
<path d="M82.3547 31.7089C81.9168 32.0099 81.8059 32.6089 82.1069 33.0467C82.408 33.4846 83.0069 33.5955 83.4448 33.2945L84.5032 32.5668V39.3966C84.5032 39.928 84.934 40.3587 85.4653 40.3587C85.9966 40.3587 86.4274 39.928 86.4274 39.3966V30.7379C86.4274 30.3806 86.2294 30.0527 85.9132 29.8864C85.597 29.7201 85.2147 29.7426 84.9203 29.9451L82.3547 31.7089Z" fill="white"/>
<path d="M185.475 16.6631C185.126 17.3491 185.126 18.2472 185.126 20.0432V47.3023C185.126 49.0984 185.126 49.9964 185.475 50.6824C185.783 51.2858 186.273 51.7764 186.877 52.0839C187.563 52.4334 188.461 52.4334 190.257 52.4334H193.464C195.26 52.4334 196.158 52.4334 196.844 52.0839C197.447 51.7764 197.938 51.2858 198.245 50.6824C198.595 49.9964 198.595 49.0984 198.595 47.3023V20.0432C198.595 18.2472 198.595 17.3491 198.245 16.6631C197.938 16.0597 197.447 15.5691 196.844 15.2616C196.158 14.9121 195.26 14.9121 193.464 14.9121H190.257C188.461 14.9121 187.563 14.9121 186.877 15.2616C186.273 15.5691 185.783 16.0597 185.475 16.6631Z" fill="white"/>
<path d="M203.755 16.6631C203.405 17.3491 203.405 18.2472 203.405 20.0432V47.3023C203.405 49.0984 203.405 49.9964 203.755 50.6824C204.062 51.2858 204.553 51.7764 205.156 52.0839C205.842 52.4334 206.74 52.4334 208.536 52.4334H211.743C213.539 52.4334 214.437 52.4334 215.123 52.0839C215.727 51.7764 216.217 51.2858 216.525 50.6824C216.874 49.9964 216.874 49.0984 216.874 47.3023V20.0432C216.874 18.2472 216.874 17.3491 216.525 16.6631C216.217 16.0597 215.727 15.5691 215.123 15.2616C214.437 14.9121 213.539 14.9121 211.743 14.9121H208.536C206.74 14.9121 205.842 14.9121 205.156 15.2616C204.553 15.5691 204.062 16.0597 203.755 16.6631Z" fill="white"/>
<path d="M316.412 22.353C316.781 22.608 316.781 23.1536 316.412 23.4086L311.447 26.8364C311.022 27.1302 310.441 26.8256 310.441 26.3086V24.324C305.653 25.5081 302.103 29.833 302.103 34.9871C302.103 41.0533 307.021 45.9709 313.087 45.9709C319.153 45.9709 324.071 41.0533 324.071 34.9871C324.071 31.2814 322.237 28.0039 319.422 26.0126C318.843 25.6035 318.706 24.803 319.115 24.2246C319.524 23.6462 320.325 23.5089 320.903 23.918C324.369 26.3696 326.637 30.4135 326.637 34.9871C326.637 42.4702 320.57 48.5364 313.087 48.5364C305.604 48.5364 299.538 42.4702 299.538 34.9871C299.538 28.4094 304.225 22.9264 310.441 21.6959V19.453C310.441 18.936 311.022 18.6315 311.447 18.9252L316.412 22.353Z" fill="white"/>
<path fill-rule="evenodd" clip-rule="evenodd" d="M313.725 31.5755C314.271 30.6202 315.172 29.7758 316.374 29.7758C317.577 29.7758 318.478 30.6202 319.024 31.5755C319.585 32.5581 319.902 33.8514 319.902 35.2276C319.902 36.6038 319.585 37.897 319.024 38.8796C318.478 39.835 317.577 40.6794 316.374 40.6794C315.172 40.6794 314.271 39.835 313.725 38.8796C313.163 37.897 312.847 36.6038 312.847 35.2276C312.847 33.8514 313.163 32.5581 313.725 31.5755ZM315.396 32.5302C315.028 33.1726 314.771 34.1242 314.771 35.2276C314.771 36.331 315.028 37.2826 315.396 37.925C315.778 38.5946 316.16 38.7552 316.374 38.7552C316.589 38.7552 316.971 38.5946 317.353 37.925C317.72 37.2826 317.978 36.331 317.978 35.2276C317.978 34.1242 317.72 33.1726 317.353 32.5302C316.971 31.8606 316.589 31.6999 316.374 31.6999C316.16 31.6999 315.778 31.8606 315.396 32.5302Z" fill="white"/>
<path d="M306.529 31.7089C306.091 32.0099 305.98 32.6089 306.281 33.0467C306.582 33.4846 307.181 33.5955 307.619 33.2945L308.678 32.5668V39.3966C308.678 39.928 309.108 40.3587 309.64 40.3587C310.171 40.3587 310.602 39.928 310.602 39.3966V30.7379C310.602 30.3806 310.404 30.0527 310.088 29.8864C309.771 29.7201 309.389 29.7426 309.095 29.9451L306.529 31.7089Z" fill="white"/>
</svg>
