<svg width="343" height="114" viewBox="0 0 343 114" fill="none" xmlns="http://www.w3.org/2000/svg">
<rect x="131" y="85" width="85" height="29" rx="14.5" fill="#507FEF"/>
<path d="M153.148 105V95.2H154.73V105H153.148ZM160.765 97.132C162.501 97.132 163.537 98.266 163.537 100.142V105H161.955V100.464C161.955 99.274 161.437 98.644 160.275 98.644C158.917 98.644 158.189 99.526 158.189 101.01V105H156.607V97.3H158.189V98.574C158.735 97.678 159.561 97.132 160.765 97.132ZM168.518 105.168C166.488 105.168 165.032 104.188 164.738 102.522H166.348C166.586 103.376 167.216 103.768 168.546 103.768C169.568 103.768 170.198 103.46 170.198 102.886C170.198 102.242 169.47 102.144 168.182 101.836C166.026 101.304 165.116 100.87 165.116 99.582C165.116 98.028 166.432 97.132 168.364 97.132C170.338 97.132 171.444 98.07 171.724 99.47H170.128C169.904 98.84 169.316 98.532 168.336 98.532C167.314 98.532 166.712 98.882 166.712 99.414C166.712 99.904 167.188 100.03 168.532 100.352C170.618 100.842 171.822 101.206 171.822 102.704C171.822 104.356 170.338 105.168 168.518 105.168ZM178.664 103.32L178.944 104.608C178.524 104.86 177.628 105.168 176.746 105.168C175.164 105.168 173.932 104.174 173.932 102.046V98.784H172.504V97.3H173.932V95.55L175.514 95.2V97.3H178.678V98.784H175.514V101.962C175.514 103.082 176.032 103.698 177.026 103.698C177.516 103.698 178.062 103.53 178.664 103.32ZM185.815 97.3H187.397V105H185.815V103.712C185.255 104.594 184.331 105.168 183.127 105.168C181.069 105.168 179.571 103.502 179.571 101.15C179.571 98.798 181.097 97.132 183.113 97.132C184.331 97.132 185.255 97.734 185.815 98.616V97.3ZM183.463 103.656C184.807 103.656 185.829 102.634 185.829 101.15C185.829 99.68 184.807 98.644 183.463 98.644C182.119 98.644 181.167 99.68 181.167 101.15C181.167 102.634 182.133 103.656 183.463 103.656ZM189.057 105V94.22H190.653V105H189.057ZM192.275 105V94.22H193.871V105H192.275Z" fill="white"/>
<path d="M137.54 43L134.375 32.5H135.68L138.545 42.235H138.74L141.605 32.5H142.91L139.745 43H137.54ZM144.087 43V32.5H148.107C148.737 32.5 149.297 32.625 149.787 32.875C150.287 33.115 150.682 33.46 150.972 33.91C151.262 34.36 151.407 34.905 151.407 35.545V35.74C151.407 36.37 151.257 36.915 150.957 37.375C150.667 37.825 150.272 38.17 149.772 38.41C149.272 38.65 148.717 38.77 148.107 38.77H145.347V43H144.087ZM145.347 37.63H147.972C148.642 37.63 149.172 37.465 149.562 37.135C149.952 36.795 150.147 36.32 150.147 35.71V35.56C150.147 34.95 149.952 34.48 149.562 34.15C149.182 33.81 148.652 33.64 147.972 33.64H145.347V37.63ZM152.696 43V32.5H155.141L158.801 42.205H158.996V32.5H160.241V43H157.796L154.151 33.28H153.941V43H152.696ZM164.694 43L167.934 32.5H170.154L173.394 43H172.089L171.279 40.345H166.809L165.999 43H164.694ZM167.124 39.205H170.949L169.149 33.265H168.939L167.124 39.205ZM174.612 46V35.665H175.767V36.88H175.977C176.167 36.51 176.472 36.18 176.892 35.89C177.322 35.6 177.917 35.455 178.677 35.455C179.307 35.455 179.882 35.61 180.402 35.92C180.932 36.22 181.352 36.65 181.662 37.21C181.982 37.77 182.142 38.445 182.142 39.235V39.43C182.142 40.21 181.987 40.885 181.677 41.455C181.367 42.025 180.947 42.46 180.417 42.76C179.897 43.06 179.317 43.21 178.677 43.21C178.167 43.21 177.732 43.14 177.372 43C177.022 42.87 176.737 42.7 176.517 42.49C176.297 42.28 176.127 42.065 176.007 41.845H175.797V46H174.612ZM178.362 42.16C179.122 42.16 179.737 41.92 180.207 41.44C180.687 40.95 180.927 40.27 180.927 39.4V39.265C180.927 38.395 180.687 37.72 180.207 37.24C179.737 36.75 179.122 36.505 178.362 36.505C177.612 36.505 176.992 36.75 176.502 37.24C176.022 37.72 175.782 38.395 175.782 39.265V39.4C175.782 40.27 176.022 40.95 176.502 41.44C176.992 41.92 177.612 42.16 178.362 42.16ZM183.866 46V35.665H185.021V36.88H185.231C185.421 36.51 185.726 36.18 186.146 35.89C186.576 35.6 187.171 35.455 187.931 35.455C188.561 35.455 189.136 35.61 189.656 35.92C190.186 36.22 190.606 36.65 190.916 37.21C191.236 37.77 191.396 38.445 191.396 39.235V39.43C191.396 40.21 191.241 40.885 190.931 41.455C190.621 42.025 190.201 42.46 189.671 42.76C189.151 43.06 188.571 43.21 187.931 43.21C187.421 43.21 186.986 43.14 186.626 43C186.276 42.87 185.991 42.7 185.771 42.49C185.551 42.28 185.381 42.065 185.261 41.845H185.051V46H183.866ZM187.616 42.16C188.376 42.16 188.991 41.92 189.461 41.44C189.941 40.95 190.181 40.27 190.181 39.4V39.265C190.181 38.395 189.941 37.72 189.461 37.24C188.991 36.75 188.376 36.505 187.616 36.505C186.866 36.505 186.246 36.75 185.756 37.24C185.276 37.72 185.036 38.395 185.036 39.265V39.4C185.036 40.27 185.276 40.95 185.756 41.44C186.246 41.92 186.866 42.16 187.616 42.16ZM192.896 44.875V44.125H193.331C193.691 44.125 193.871 43.945 193.871 43.585V43.105H193.661C193.371 43.105 193.126 43.015 192.926 42.835C192.736 42.655 192.641 42.43 192.641 42.16C192.641 41.87 192.736 41.635 192.926 41.455C193.126 41.275 193.371 41.185 193.661 41.185C193.951 41.185 194.191 41.28 194.381 41.47C194.571 41.66 194.666 41.9 194.666 42.19V43.585C194.666 44.445 194.236 44.875 193.376 44.875H192.896ZM199.29 43V32.5H200.55V43H199.29ZM202.598 43V35.665H203.753V36.91H203.963C204.123 36.56 204.393 36.245 204.773 35.965C205.163 35.675 205.733 35.53 206.483 35.53C207.033 35.53 207.523 35.645 207.953 35.875C208.393 36.105 208.743 36.445 209.003 36.895C209.263 37.345 209.393 37.9 209.393 38.56V43H208.208V38.65C208.208 37.92 208.023 37.39 207.653 37.06C207.293 36.73 206.803 36.565 206.183 36.565C205.473 36.565 204.893 36.795 204.443 37.255C204.003 37.715 203.783 38.4 203.783 39.31V43H202.598ZM214.772 43.21C214.062 43.21 213.422 43.06 212.852 42.76C212.292 42.45 211.847 42.01 211.517 41.44C211.197 40.87 211.037 40.195 211.037 39.415V39.25C211.037 38.46 211.197 37.785 211.517 37.225C211.847 36.655 212.292 36.22 212.852 35.92C213.422 35.61 214.062 35.455 214.772 35.455C215.472 35.455 216.067 35.585 216.557 35.845C217.057 36.105 217.447 36.45 217.727 36.88C218.017 37.31 218.202 37.77 218.282 38.26L217.127 38.5C217.077 38.14 216.957 37.81 216.767 37.51C216.587 37.21 216.332 36.97 216.002 36.79C215.672 36.61 215.267 36.52 214.787 36.52C214.297 36.52 213.857 36.63 213.467 36.85C213.087 37.07 212.782 37.385 212.552 37.795C212.332 38.205 212.222 38.695 212.222 39.265V39.4C212.222 39.97 212.332 40.46 212.552 40.87C212.782 41.28 213.087 41.595 213.467 41.815C213.857 42.035 214.297 42.145 214.787 42.145C215.517 42.145 216.072 41.955 216.452 41.575C216.842 41.195 217.082 40.725 217.172 40.165L218.342 40.42C218.232 40.9 218.032 41.355 217.742 41.785C217.452 42.215 217.057 42.56 216.557 42.82C216.067 43.08 215.472 43.21 214.772 43.21ZM220.504 43.21C220.214 43.21 219.969 43.115 219.769 42.925C219.579 42.735 219.484 42.49 219.484 42.19C219.484 41.89 219.579 41.645 219.769 41.455C219.969 41.265 220.214 41.17 220.504 41.17C220.804 41.17 221.049 41.265 221.239 41.455C221.429 41.645 221.524 41.89 221.524 42.19C221.524 42.49 221.429 42.735 221.239 42.925C221.049 43.115 220.804 43.21 220.504 43.21Z" fill="#8A8A8D"/>
<path d="M144.72 7H147.12L142.3 21H139.42L134.62 7H137.02L140.86 18.4L144.72 7ZM154.91 7C157.97 7 159.83 8.84 159.83 11.6C159.83 14.34 157.97 16.26 154.91 16.26H151.43V21H149.17V7H154.91ZM154.83 14.1C156.67 14.1 157.53 13.04 157.53 11.62C157.53 10.2 156.67 9.16 154.83 9.16H151.43V14.1H154.83ZM171.651 7H173.911V21H171.231L164.231 10.18L164.451 15.14V21H162.191V7H164.851L171.851 17.8L171.651 12.86V7ZM192.992 21L191.572 17.24H185.492L184.072 21H181.672L187.092 7H189.972L195.392 21H192.992ZM186.312 15.1H190.752L188.532 9.24L186.312 15.1ZM203.196 9.76C206.076 9.76 208.256 12.14 208.256 15.5C208.256 18.86 206.116 21.24 203.176 21.24C201.456 21.24 200.136 20.4 199.336 19.16V26H197.076V10H199.336V11.88C200.136 10.62 201.456 9.76 203.196 9.76ZM202.696 19.08C204.596 19.08 205.976 17.62 205.976 15.5C205.976 13.4 204.616 11.92 202.696 11.92C200.776 11.92 199.316 13.4 199.316 15.5C199.316 17.62 200.776 19.08 202.696 19.08ZM216.551 9.76C219.431 9.76 221.611 12.14 221.611 15.5C221.611 18.86 219.471 21.24 216.531 21.24C214.811 21.24 213.491 20.4 212.691 19.16V26H210.431V10H212.691V11.88C213.491 10.62 214.811 9.76 216.551 9.76ZM216.051 19.08C217.951 19.08 219.331 17.62 219.331 15.5C219.331 13.4 217.971 11.92 216.051 11.92C214.131 11.92 212.671 13.4 212.671 15.5C212.671 17.62 214.131 19.08 216.051 19.08Z" fill="white"/>
<rect width="114" height="114" rx="26" fill="#3995FE"/>
<g filter="url(#filter0_d_987_3492)">
<path d="M53.0821 21.2152C48.6726 24.8202 43.1103 27.4936 37.5681 28.6885C34.5139 29.3568 32.0867 29.5189 25.4119 29.5189H19L19.1416 33.2049C19.6068 45.6402 22.0542 56.2324 26.6457 65.6703C31.581 75.7967 39.1458 84.2827 48.349 90.0143C50.493 91.351 54.4372 93.3965 54.5788 93.2547C54.6193 93.2142 54.6395 76.7081 54.6193 56.597L54.5586 20L53.0821 21.2152Z" fill="white"/>
<path d="M60.9083 27.3037V35.909C61.3204 35.9401 61.836 35.9725 62.4933 36.011C65.7814 36.1887 67.5911 36.4019 70.0631 36.8874C78.2242 38.5099 85.7584 42.1694 92.0035 47.5343C92.6185 48.0672 93.3873 48.6357 93.7066 48.8015C95.812 49.8792 98.4496 48.9554 99.5259 46.7526C99.8334 46.125 99.8689 45.9355 99.8689 44.9288C99.8689 43.8866 99.8334 43.7327 99.4786 42.9984C99.1474 42.3234 98.8872 42.0273 97.9173 41.1746C95.3862 38.9836 91.7669 36.39 88.9874 34.7912C82.6359 31.1436 75.3027 28.6802 68.076 27.7565C65.5846 27.4423 62.5532 27.2652 60.9083 27.3037Z" fill="white"/>
<path d="M60.9083 53.3135C61.0816 53.3247 61.2737 53.3359 61.488 53.3475C69.6373 53.7976 75.9059 56.3557 81.5951 61.5547C82.2101 62.1232 83.0144 62.7272 83.3692 62.9048C83.9488 63.1891 84.1498 63.2246 85.2025 63.2246C86.3025 63.2246 86.4326 63.2009 87.0949 62.8456C87.9702 62.3956 88.7272 61.6021 89.1412 60.7021C89.4132 60.1217 89.4605 59.873 89.4605 58.9611C89.4605 57.4334 89.082 56.6873 87.5917 55.278C80.7198 48.7998 71.5534 44.9864 62.1976 44.7377C61.6687 44.7257 61.2481 44.7205 60.9083 44.7237L60.9083 53.3135Z" fill="white"/>
<path d="M60.9081 62.114C60.9081 62.5288 60.9081 70.7337 60.9081 70.7337C60.9976 70.7409 61.0921 70.7481 61.192 70.7552C63.5103 70.921 64.9532 71.2881 66.7392 72.1882C67.9338 72.7922 68.4897 73.1712 69.6961 74.2134C71.0445 75.3858 71.6714 75.6582 73.0197 75.6582C73.9423 75.6582 74.1788 75.6108 74.8057 75.3266C75.6691 74.9239 76.4852 74.1305 76.9465 73.2304C77.2422 72.6501 77.2777 72.4606 77.2777 71.3947C77.2777 69.7959 77.0056 69.2393 75.5745 67.8774C71.7541 64.2534 66.3134 62.0743 61.192 62.1098C61.0978 62.1098 61.0027 62.1113 60.9081 62.114Z" fill="white"/>
<path d="M60.8965 88.0938C60.8965 88.0938 60.9082 80.467 60.9082 79.4959C61.6036 79.5133 62.3156 79.6751 62.7652 79.9102C66.0533 81.6038 66.0297 86.1397 62.7179 87.7503C62.1029 88.0464 61.89 88.0819 60.8965 88.0938Z" fill="white"/>
</g>
<path d="M331.338 102.518C331.836 102.518 332.246 102.107 332.246 101.619V91.7949L332.178 90.3496L332.773 91.0625L334.141 92.5176C334.297 92.6934 334.521 92.7812 334.746 92.7812C335.195 92.7812 335.566 92.459 335.566 92C335.566 91.7559 335.469 91.5801 335.303 91.4141L332.031 88.2598C331.797 88.0254 331.572 87.9473 331.338 87.9473C331.094 87.9473 330.879 88.0254 330.645 88.2598L327.363 91.4141C327.197 91.5801 327.1 91.7559 327.1 92C327.1 92.459 327.461 92.7812 327.91 92.7812C328.135 92.7812 328.369 92.6934 328.525 92.5176L329.893 91.0625L330.498 90.3398L330.42 91.7949V101.619C330.42 102.107 330.83 102.518 331.338 102.518ZM325.703 110.32H336.953C339.072 110.32 340.166 109.227 340.166 107.137V97.5371C340.166 95.4473 339.072 94.3535 336.953 94.3535H334.316V96.2969H336.826C337.715 96.2969 338.223 96.7656 338.223 97.7031V106.961C338.223 107.898 337.715 108.367 336.826 108.367H325.83C324.932 108.367 324.434 107.898 324.434 106.961V97.7031C324.434 96.7656 324.932 96.2969 325.83 96.2969H328.369V94.3535H325.703C323.594 94.3535 322.49 95.4375 322.49 97.5371V107.137C322.49 109.227 323.594 110.32 325.703 110.32Z" fill="#3478F6"/>
<defs>
<filter id="filter0_d_987_3492" x="12.7739" y="14.2421" width="93.321" height="85.7139" filterUnits="userSpaceOnUse" color-interpolation-filters="sRGB">
<feFlood flood-opacity="0" result="BackgroundImageFix"/>
<feColorMatrix in="SourceAlpha" type="matrix" values="0 0 0 0 0 0 0 0 0 0 0 0 0 0 0 0 0 0 127 0" result="hardAlpha"/>
<feOffset dy="0.468126"/>
<feGaussianBlur stdDeviation="3.11304"/>
<feComposite in2="hardAlpha" operator="out"/>
<feColorMatrix type="matrix" values="0 0 0 0 0 0 0 0 0 0 0 0 0 0 0 0 0 0 0.25 0"/>
<feBlend mode="normal" in2="BackgroundImageFix" result="effect1_dropShadow_987_3492"/>
<feBlend mode="normal" in="SourceGraphic" in2="effect1_dropShadow_987_3492" result="shape"/>
</filter>
</defs>
</svg>
