<svg width="36" height="36" viewBox="0 0 36 36" fill="none" xmlns="http://www.w3.org/2000/svg">
<path d="M18 36C15.5379 36 13.2196 35.5281 11.0451 34.5842C8.87057 33.6518 6.95494 32.3568 5.29818 30.6993C3.64142 29.0417 2.34132 27.1309 1.39789 24.9669C0.465964 22.7914 0 20.4662 0 17.9914C0 15.5281 0.465964 13.2144 1.39789 11.0504C2.34132 8.87482 3.63567 6.95827 5.28092 5.30072C6.93768 3.64317 8.85331 2.3482 11.0278 1.41583C13.2023 0.471942 15.5206 0 17.9827 0C20.4449 0 22.7632 0.471942 24.9377 1.41583C27.1237 2.3482 29.0393 3.64317 30.6846 5.30072C32.3413 6.95827 33.6414 8.87482 34.5849 11.0504C35.5283 13.2144 36 15.5281 36 17.9914C36 20.4662 35.5283 22.7914 34.5849 24.9669C33.6414 27.1309 32.3413 29.0417 30.6846 30.6993C29.0393 32.3568 27.1294 33.6518 24.9549 34.5842C22.7804 35.5281 20.4621 36 18 36ZM18 20.8058C19.1045 20.8058 19.6798 20.2302 19.7258 19.0791L20.0019 10.9122C20.0249 10.3482 19.8408 9.88201 19.4497 9.51367C19.07 9.13381 18.581 8.94388 17.9827 8.94388C17.373 8.94388 16.8782 9.12806 16.4986 9.4964C16.1189 9.86475 15.9406 10.3367 15.9636 10.9122L16.2224 19.0791C16.2685 20.2302 16.861 20.8058 18 20.8058ZM18 26.8835C18.6213 26.8835 19.1505 26.6935 19.5877 26.3137C20.0249 25.9223 20.2435 25.4216 20.2435 24.8115C20.2435 24.213 20.0249 23.718 19.5877 23.3266C19.1505 22.9353 18.6213 22.7396 18 22.7396C17.3672 22.7396 16.8322 22.9353 16.395 23.3266C15.9578 23.718 15.7392 24.213 15.7392 24.8115C15.7392 25.4216 15.9578 25.9223 16.395 26.3137C16.8437 26.6935 17.3787 26.8835 18 26.8835Z" fill="#FF3B2F"/>
</svg>
