<svg width="37" height="30" viewBox="0 0 37 30" fill="none" xmlns="http://www.w3.org/2000/svg">
<path opacity="0.7" d="M36.2612 16.0217L23.3796 28.9033C22.8534 29.4294 22.0633 29.5865 21.375 29.3018C20.6884 29.0171 20.2399 28.3461 20.2399 27.6025V22.1112C7.98275 22.5287 3.17646 27.0262 3.12832 27.0743H3.12659C2.54523 27.6401 1.66024 27.7575 0.949472 27.3641C0.238707 26.9691 -0.130454 26.1565 0.0420478 25.363C0.0800005 25.1888 3.9581 8.59816 20.2397 7.42518V1.8394C20.2397 1.09586 20.6882 0.424801 21.3748 0.140124C22.0632 -0.144522 22.8533 0.0124652 23.3795 0.538628L36.261 13.4202C36.6061 13.7652 36.801 14.2327 36.801 14.7209C36.801 15.2092 36.6061 15.6767 36.261 16.0217L36.2612 16.0217Z" fill="white"/>
</svg>
