<svg width="38" height="36" viewBox="0 0 38 36" fill="none" xmlns="http://www.w3.org/2000/svg">
<path d="M18.7598 0C29.1206 0 37.5195 7.19934 37.5195 16.0801C37.5195 18.4708 36.9101 20.739 35.8184 22.7783C35.8107 22.7979 35.805 22.8185 35.7959 22.8379C33.7834 27.1504 30.4323 30.6989 26.2422 32.9551L21.5762 35.4678C20.3794 36.1122 18.9491 35.1547 19.0889 33.8027L19.2588 32.1533C19.093 32.157 18.9266 32.1602 18.7598 32.1602C8.39904 32.16 4.93098e-05 24.9607 0 16.0801C0 7.19941 8.39901 0.000108683 18.7598 0ZM9.1123 13.9355C7.63218 13.9355 6.43164 15.1361 6.43164 16.6162C6.43175 18.0962 7.63225 19.2959 9.1123 19.2959C10.5922 19.2957 11.7919 18.0961 11.792 16.6162C11.792 15.1362 10.5923 13.9357 9.1123 13.9355ZM18.7598 13.9355C17.2798 13.9357 16.0801 15.1362 16.0801 16.6162C16.0802 18.0962 17.2798 19.2958 18.7598 19.2959C20.2398 19.2959 21.4403 18.0962 21.4404 16.6162C21.4404 15.1361 20.2399 13.9355 18.7598 13.9355ZM28.4082 13.9355C26.9281 13.9355 25.7275 15.1361 25.7275 16.6162C25.7277 18.0962 26.9282 19.2959 28.4082 19.2959C29.8882 19.2958 31.0878 18.0962 31.0879 16.6162C31.0879 15.1362 29.8882 13.9357 28.4082 13.9355Z" fill="white"/>
</svg>
