<svg width="39" height="36" viewBox="0 0 39 36" fill="none" xmlns="http://www.w3.org/2000/svg">
<path opacity="0.7" d="M19.2961 35.376C18.7634 35.376 18.2326 35.1775 17.7962 34.7785C16.2492 33.383 14.7493 32.0381 13.3949 30.8917C9.52623 27.4546 6.14118 24.5136 3.81951 21.6232C1.20895 18.3846 0 15.2959 0 11.9581C0 8.66881 1.06349 5.67909 3.04694 3.48777C5.03039 1.24563 7.78641 0 10.7842 0C13.0095 0 15.0401 0.74738 16.829 2.14289C17.747 2.89027 18.5706 3.7369 19.296 4.78403C20.0214 3.7369 20.8431 2.89027 21.763 2.14289C23.5519 0.698751 25.5825 0 27.8078 0C30.8056 0 33.5145 1.24563 35.5451 3.48777C37.5285 5.67929 38.592 8.71944 38.592 11.9581C38.592 15.3466 37.3831 18.3846 34.7725 21.6232C32.4509 24.5135 29.0658 27.4523 25.1971 30.8917C23.8918 32.0381 22.3448 33.383 20.7958 34.7785C20.3594 35.1775 19.8286 35.376 19.2959 35.376H19.2961Z" fill="white"/>
</svg>
