<svg width="79" height="79" viewBox="0 0 79 79" fill="none" xmlns="http://www.w3.org/2000/svg">
<rect x="2" y="2" width="74.403" height="74.403" rx="37.2015" stroke="#FF383C" stroke-width="4"/>
<path d="M22.0511 20.3519C21.9395 20.2403 21.8071 20.1518 21.6613 20.0915C21.5155 20.0311 21.3593 20 21.2015 20C21.0437 20 20.8875 20.0311 20.7417 20.0915C20.5959 20.1518 20.4635 20.2403 20.3519 20.3519C20.2403 20.4635 20.1518 20.5959 20.0915 20.7417C20.0311 20.8875 20 21.0437 20 21.2015C20 21.3593 20.0311 21.5155 20.0915 21.6613C20.1518 21.8071 20.2403 21.9395 20.3519 22.0511L23.9039 25.6007C22.7284 26.2064 21.7423 27.1241 21.054 28.2532C20.3656 29.3823 20.0015 30.6791 20.0015 32.0015V46.4015C20.0015 48.3111 20.7601 50.1424 22.1103 51.4927C23.4606 52.8429 25.292 53.6015 27.2015 53.6015H39.2015C40.845 53.602 42.4392 53.0402 43.7193 52.0094C44.9994 50.9786 45.8883 49.5409 46.2383 47.9351L56.3519 58.0511C56.5772 58.2764 56.8829 58.403 57.2015 58.403C57.5202 58.403 57.8258 58.2764 58.0511 58.0511C58.2764 57.8258 58.403 57.5202 58.403 57.2015C58.403 56.8829 58.2764 56.5772 58.0511 56.3519L22.0511 20.3519ZM48.8015 43.7135L56.1839 51.0935C57.4055 50.7575 58.3967 49.6583 58.3967 48.1967V30.2063C58.3964 29.6594 58.2465 29.123 57.9634 28.655C57.6802 28.1871 57.2745 27.8055 56.7902 27.5515C56.3058 27.2974 55.7612 27.1806 55.2153 27.2137C54.6694 27.2468 54.1429 27.4285 53.6927 27.7391L48.8015 31.1135V43.7135ZM29.8919 24.8015L46.4015 41.3111V32.0015C46.4015 30.092 45.6429 28.2606 44.2927 26.9103C42.9424 25.5601 41.1111 24.8015 39.2015 24.8015H29.8919Z" fill="#FF392B"/>
</svg>
