<svg width="58" height="58" viewBox="0 0 58 58" fill="none" xmlns="http://www.w3.org/2000/svg">
<rect x="1" y="1" width="56" height="56" rx="28" stroke="white" stroke-width="2"/>
<path d="M16.0489 14.7657C15.9646 14.6815 15.8646 14.6147 15.7545 14.5691C15.6445 14.5235 15.5265 14.5 15.4073 14.5C15.2882 14.5 15.1702 14.5235 15.0601 14.5691C14.95 14.6147 14.85 14.6815 14.7657 14.7657C14.6815 14.85 14.6147 14.95 14.5691 15.0601C14.5235 15.1702 14.5 15.2882 14.5 15.4073C14.5 15.5265 14.5235 15.6445 14.5691 15.7545C14.6147 15.8646 14.6815 15.9646 14.7657 16.0489L17.448 18.7294C16.5603 19.1867 15.8157 19.8797 15.2959 20.7324C14.7761 21.585 14.5011 22.5643 14.5011 23.5629V34.4371C14.5011 35.8791 15.074 37.262 16.0936 38.2817C17.1133 39.3013 18.4962 39.8741 19.9382 39.8741H29C30.2411 39.8745 31.4449 39.4502 32.4116 38.6718C33.3782 37.8934 34.0495 36.8078 34.3138 35.5952L41.9511 43.2343C42.1213 43.4044 42.352 43.5 42.5927 43.5C42.8333 43.5 43.0641 43.4044 43.2343 43.2343C43.4044 43.0641 43.5 42.8333 43.5 42.5927C43.5 42.352 43.4044 42.1213 43.2343 41.9511L16.0489 14.7657ZM36.2494 32.4072L41.8242 37.9802C42.7467 37.7265 43.4952 36.8964 43.4952 35.7927V22.2073C43.495 21.7943 43.3818 21.3892 43.168 21.0358C42.9542 20.6825 42.6478 20.3943 42.282 20.2025C41.9163 20.0106 41.505 19.9224 41.0928 19.9474C40.6805 19.9724 40.2829 20.1096 39.943 20.3442L36.2494 22.8924V32.4072ZM21.9699 18.1259L34.4371 30.5931V23.5629C34.4371 22.1209 33.8642 20.738 32.8446 19.7183C31.8249 18.6987 30.442 18.1259 29 18.1259H21.9699Z" fill="white"/>
</svg>
