<svg xmlns="http://www.w3.org/2000/svg" width="71" height="71" fill="none" viewBox="0 0 71 71"><path fill="url(#a)" d="M45.626 0c7.007 0 10.511 0 14.326 1.168a14.73 14.73 0 0 1 8.876 8.876c1.246 3.815 1.246 7.397 1.246 14.404v21.178c0 7.007 0 10.511-1.168 14.326a14.73 14.73 0 0 1-8.876 8.876c-3.893 1.246-7.397 1.246-14.404 1.246H24.448c-7.007 0-10.511 0-14.326-1.168-4.205-1.557-7.397-4.75-8.954-8.954C0 56.215 0 52.712 0 45.626V24.448c0-7.007 0-10.511 1.168-14.326 1.557-4.127 4.75-7.397 8.954-8.876C13.859 0 17.362 0 24.448 0z"/><path fill="#2e2e30" d="M35.037 65.402c16.77 0 30.366-13.595 30.366-30.365S51.807 4.67 35.037 4.67 4.672 18.267 4.672 35.037s13.595 30.365 30.365 30.365"/><path fill="#000" d="M36.94 19.02q.117.016.233.034l.545.08.829-2.058c.247-.665.393-.565.389.058l-.052 2.174c.234.034.535.157.768.191l1.052-1.947c.315-.577.47-.554.379.134l-.363 2.128c.223.11.524.233.758.268l1.265-1.76c.392-.566.538-.466.368.21l-.596 2.093c.224.111.524.234.737.421l1.411-1.66c.46-.478.606-.378.369.21l-.83 2.059c.213.187.437.298.65.485l1.623-1.473c.538-.466.683-.366.358.287l-1.042 1.871c.213.188.426.375.561.551l1.827-1.21c.527-.389.673-.29.28.276l-1.363 1.901c.213.188.348.364.55.628l1.952-.958c.595-.301.74-.202.27.352l-1.478 1.573c.136.176.338.44.463.692l2.087-.782c.663-.213.72-.049.193.34l-1.692 1.386.375.757 2.134-.54c.653-.138.71.027.193.34l-1.827 1.21c.125.251.173.492.298.744l2.18-.3c.643-.06.779.116.106.406l-1.952.957c.047.24.172.493.21.81l2.14.006c.71.027.69.18.105.405l-2 .717c.048.24.085.558.132.798l2.188.247c.7.104.68.256.027.393l-2.124.465c.047.24.007.546-.024.775l2.07.54c.69.181.669.334-.051.383l-2.171.223-.102.764-.01.077 2.049.693c.68.257.659.41-.051.382l-2.14-.005c-.041.305-.15.523-.19.829l1.93.987c.592.322.571.474-.129.37l-2.1-.31c-.108.217-.148.522-.257.74l1.823 1.205c.581.398.483.54-.129.37l-2.07-.54c-.107.218-.226.512-.334.73l1.636 1.411c.493.463.473.616-.207.36l-1.96-.76c-.187.207-.305.501-.491.707l1.46 1.541c.494.463.385.68-.284.348l-1.968-1.305-.558.619 1.285 1.67c.405.528.307.67-.274.272l-1.745-1.194c-.186.206-.372.412-.626.53l1.109 1.801c.318.593.22.734-.352.26L45.13 48.05c-.264.195-.44.325-.693.443l.855 1.919c.307.669.141.722-.342.183l-1.46-1.541-.761.354.6 2.037c.23.658.065.711-.34.183l-1.197-1.735a7 7 0 0 1-.839.343l.358 2.079c.152.646-.014.699-.41.095l-1.02-1.866c-.243.042-.575.149-.818.19l.124 2.045c.064.71-.17.676-.409.095l-.797-1.754c-.244.041-.565.072-.809.114l-.119 2.086c-.014.699-.247.664-.399.018l-.6-2.037c-.244.042-.555-.004-.877.026l-.43 2.04c-.091.688-.325.653-.399.019l-.192-2.132c-.31-.046-.544-.081-.865-.05l-.664 2.005c-.247.664-.402.641-.389-.058l-.036-2.11c-.311-.045-.544-.08-.845-.202l-.887 1.894c-.237.588-.47.553-.379-.134l.197-2.075c-.3-.122-.534-.157-.757-.268l-1.188 1.772c-.314.577-.548.542-.378-.134l.43-2.04c-.223-.111-.524-.234-.747-.345l-1.333 1.673c-.393.565-.616.454-.369-.21l.664-2.006c-.223-.111-.436-.299-.737-.421l-1.546 1.485c-.46.477-.605.378-.369-.21l.965-1.883c-.213-.188-.426-.375-.65-.486l-1.68 1.309c-.528.389-.673.29-.28-.276l1.187-1.771c-.213-.188-.426-.375-.551-.627l-1.786.903c-.605.378-.74.202-.28-.275l1.332-1.672c-.212-.188-.337-.44-.473-.616l-1.94.881c-.596.301-.731.125-.271-.352l1.546-1.485c-.125-.252-.26-.428-.386-.68l-2.066.628c-.663.214-.72.05-.193-.34l1.76-1.297c-.126-.253-.25-.505-.298-.746l-2.114.388c-.652.137-.71-.027-.104-.405l1.884-1.045c-.125-.252-.173-.493-.22-.734l-2.316.124c-.72.05-.778-.115-.105-.405l2.009-.793c-.047-.24-.084-.558-.132-.799l-2.208-.093c-.71-.028-.69-.18-.026-.394l2.066-.628c-.047-.241-.007-.547-.054-.788l-2.167-.399c-.7-.104-.67-.333-.027-.394l2.191-.376c.03-.23-.006-.546.024-.775l-2.137-.629c-.69-.18-.66-.41.051-.382l2.228-.06.102-.763-2.028-.846c-.602-.246-.572-.475.128-.371l2.198.17c.03-.23.15-.523.257-.741l-1.92-1.064c-.591-.321-.571-.474.129-.37l2.167.399c.108-.218.227-.512.335-.73l-1.812-1.281c-.581-.398-.483-.54.207-.36l2.126.706c.108-.218.294-.424.403-.642l-1.626-1.488c-.494-.462-.396-.604.206-.358l2.019.922c.186-.206.294-.424.48-.63l-1.44-1.694c-.483-.539-.307-.669.274-.27l1.91 1.14c.186-.207.362-.337.548-.543l-1.254-1.9c-.395-.604-.23-.657.274-.27l1.802 1.357c.186-.206.44-.324.626-.53l-.98-2.171c-.317-.593-.142-.723.352-.26l1.616 1.564c.176-.13.43-.248.683-.366l-.757-2.06c-.23-.658-.064-.71.342-.183l1.43 1.77c.253-.118.507-.236.683-.366l-.503-2.178c-.152-.646.014-.7.419-.172l1.176 1.889c.254-.119.497-.16.74-.202l-.259-2.22c-.064-.711.102-.764.41-.095l.922 2.006.73-.125.052-2.174c.013-.7.169-.676.399-.019l.668 2.125c.244-.042.565-.072.798-.037l.295-2.216c.092-.688.247-.665.4-.019l.502 2.178c.234.035.555.005.788.04l.518-2.106c.17-.676.325-.653.39.058zm-3.653 29.222c7.388 1.096 14.16-3.9 15.126-11.159.967-7.258-4.238-14.03-11.626-15.125S22.56 25.77 21.594 33.028c-.967 7.26 4.305 14.119 11.693 15.214"/><path fill="#7f7f7f" d="M36.94 19.02q.117.016.233.034l.545.08.829-2.058c.247-.665.393-.565.389.058l-.052 2.174c.234.034.535.157.768.191l1.052-1.947c.315-.577.47-.554.379.134l-.363 2.128c.223.11.524.233.758.268l1.265-1.76c.392-.566.538-.466.368.21l-.596 2.093c.224.111.524.234.737.421l1.411-1.66c.46-.478.606-.378.369.21l-.83 2.059c.213.187.437.298.65.485l1.623-1.473c.538-.466.683-.366.358.287l-1.042 1.871c.213.188.426.375.561.551l1.827-1.21c.527-.389.673-.29.28.276l-1.363 1.901c.213.188.348.364.55.628l1.952-.958c.595-.301.74-.202.27.352l-1.478 1.573c.136.176.338.44.463.692l2.087-.782c.663-.213.72-.049.193.34l-1.692 1.386.375.757 2.134-.54c.653-.138.71.027.193.34l-1.827 1.21c.125.251.173.492.298.744l2.18-.3c.643-.06.779.116.106.406l-1.952.957c.047.24.172.493.21.81l2.14.006c.71.027.69.18.105.405l-2 .717c.048.24.085.558.132.798l2.188.247c.7.104.68.256.027.393l-2.124.465c.047.24.007.546-.024.775l2.07.54c.69.181.669.334-.051.383l-2.171.223-.102.764-.01.077 2.049.693c.68.257.659.41-.051.382l-2.14-.005c-.041.305-.15.523-.19.829l1.93.987c.592.322.571.474-.129.37l-2.1-.31c-.108.217-.148.522-.257.74l1.823 1.205c.581.398.483.54-.129.37l-2.07-.54c-.107.218-.226.512-.334.73l1.636 1.411c.493.463.473.616-.207.36l-1.96-.76c-.187.207-.305.501-.491.707l1.46 1.541c.494.463.385.68-.284.348l-1.968-1.305-.558.619 1.285 1.67c.405.528.307.67-.274.272l-1.745-1.194c-.186.206-.372.412-.626.53l1.109 1.801c.318.593.22.734-.352.26L45.13 48.05c-.264.195-.44.325-.693.443l.855 1.919c.307.669.141.722-.342.183l-1.46-1.541-.761.354.6 2.037c.23.658.065.711-.34.183l-1.197-1.735a7 7 0 0 1-.839.343l.358 2.079c.152.646-.014.699-.41.095l-1.02-1.866c-.243.042-.575.149-.818.19l.124 2.045c.064.71-.17.676-.409.095l-.797-1.754c-.244.041-.565.072-.809.114l-.119 2.086c-.014.699-.247.664-.399.018l-.6-2.037c-.244.042-.555-.004-.877.026l-.43 2.04c-.091.688-.325.653-.399.019l-.192-2.132c-.31-.046-.544-.081-.865-.05l-.664 2.005c-.247.664-.402.641-.389-.058l-.036-2.11c-.311-.045-.544-.08-.845-.202l-.887 1.894c-.237.588-.47.553-.379-.134l.197-2.075c-.3-.122-.534-.157-.757-.268l-1.188 1.772c-.314.577-.548.542-.378-.134l.43-2.04c-.223-.111-.524-.234-.747-.345l-1.333 1.673c-.393.565-.616.454-.369-.21l.664-2.006c-.223-.111-.436-.299-.737-.421l-1.546 1.485c-.46.477-.605.378-.369-.21l.965-1.883c-.213-.188-.426-.375-.65-.486l-1.68 1.309c-.528.389-.673.29-.28-.276l1.187-1.771c-.213-.188-.426-.375-.551-.627l-1.786.903c-.605.378-.74.202-.28-.275l1.332-1.672c-.212-.188-.337-.44-.473-.616l-1.94.881c-.596.301-.731.125-.271-.352l1.546-1.485c-.125-.252-.26-.428-.386-.68l-2.066.628c-.663.214-.72.05-.193-.34l1.76-1.297c-.126-.253-.25-.505-.298-.746l-2.114.388c-.652.137-.71-.027-.104-.405l1.884-1.045c-.125-.252-.173-.493-.22-.734l-2.316.124c-.72.05-.778-.115-.105-.405l2.009-.793c-.047-.24-.084-.558-.132-.799l-2.208-.093c-.71-.028-.69-.18-.026-.394l2.066-.628c-.047-.241-.007-.547-.054-.788l-2.167-.399c-.7-.104-.67-.333-.027-.394l2.191-.376c.03-.23-.006-.546.024-.775l-2.137-.629c-.69-.18-.66-.41.051-.382l2.228-.06.102-.763-2.028-.846c-.602-.246-.572-.475.128-.371l2.198.17c.03-.23.15-.523.257-.741l-1.92-1.064c-.591-.321-.571-.474.129-.37l2.167.399c.108-.218.227-.512.335-.73l-1.812-1.281c-.581-.398-.483-.54.207-.36l2.126.706c.108-.218.294-.424.403-.642l-1.626-1.488c-.494-.462-.396-.604.206-.358l2.019.922c.186-.206.294-.424.48-.63l-1.44-1.694c-.483-.539-.307-.669.274-.27l1.91 1.14c.186-.207.362-.337.548-.543l-1.254-1.9c-.395-.604-.23-.657.274-.27l1.802 1.357c.186-.206.44-.324.626-.53l-.98-2.171c-.317-.593-.142-.723.352-.26l1.616 1.564c.176-.13.43-.248.683-.366l-.757-2.06c-.23-.658-.064-.71.342-.183l1.43 1.77c.253-.118.507-.236.683-.366l-.503-2.178c-.152-.646.014-.7.419-.172l1.176 1.889c.254-.119.497-.16.74-.202l-.259-2.22c-.064-.711.102-.764.41-.095l.922 2.006.73-.125.052-2.174c.013-.7.169-.676.399-.019l.668 2.125c.244-.042.565-.072.798-.037l.295-2.216c.092-.688.247-.665.4-.019l.502 2.178c.234.035.555.005.788.04l.518-2.106c.17-.676.325-.653.39.058zm-3.653 29.222c7.388 1.096 14.16-3.9 15.126-11.159.967-7.258-4.238-14.03-11.626-15.125S22.56 25.77 21.594 33.028c-.967 7.26 4.305 14.119 11.693 15.214"/><path fill="#777" d="M36.94 19.02q.117.016.233.034l.545.08.829-2.058c.247-.665.393-.565.389.058l-.052 2.174c.234.034.535.157.768.191l1.052-1.947c.315-.577.47-.554.379.134l-.363 2.128c.223.11.524.233.758.268l1.265-1.76c.392-.566.538-.466.368.21l-.596 2.093c.224.111.524.234.737.421l1.411-1.66c.46-.478.606-.378.369.21l-.83 2.059c.213.187.437.298.65.485l1.623-1.473c.538-.466.683-.366.358.287l-1.042 1.871c.213.188.426.375.561.551l1.827-1.21c.527-.389.673-.29.28.276l-1.363 1.901c.213.188.348.364.55.628l1.952-.958c.595-.301.74-.202.27.352l-1.478 1.573c.136.176.338.44.463.692l2.087-.782c.663-.213.72-.049.193.34l-1.692 1.386.375.757 2.134-.54c.653-.138.71.027.193.34l-1.827 1.21c.125.251.173.492.298.744l2.18-.3c.643-.06.779.116.106.406l-1.952.957c.047.24.172.493.21.81l2.14.006c.71.027.69.18.105.405l-2 .717c.048.24.085.558.132.798l2.188.247c.7.104.68.256.027.393l-2.124.465c.047.24.007.546-.024.775l2.07.54c.69.181.669.334-.051.383l-2.171.223-.102.764-.01.077 2.049.693c.68.257.659.41-.051.382l-2.14-.005c-.041.305-.15.523-.19.829l1.93.987c.592.322.571.474-.129.37l-2.1-.31c-.108.217-.148.522-.257.74l1.823 1.205c.581.398.483.54-.129.37l-2.07-.54c-.107.218-.226.512-.334.73l1.636 1.411c.493.463.473.616-.207.36l-1.96-.76c-.187.207-.305.501-.491.707l1.46 1.541c.494.463.385.68-.284.348l-1.968-1.305-.558.619 1.285 1.67c.405.528.307.67-.274.272l-1.745-1.194c-.186.206-.372.412-.626.53l1.109 1.801c.318.593.22.734-.352.26L45.13 48.05c-.264.195-.44.325-.693.443l.855 1.919c.307.669.141.722-.342.183l-1.46-1.541-.761.354.6 2.037c.23.658.065.711-.34.183l-1.197-1.735a7 7 0 0 1-.839.343l.358 2.079c.152.646-.014.699-.41.095l-1.02-1.866c-.243.042-.575.149-.818.19l.124 2.045c.064.71-.17.676-.409.095l-.797-1.754c-.244.041-.565.072-.809.114l-.119 2.086c-.014.699-.247.664-.399.018l-.6-2.037c-.244.042-.555-.004-.877.026l-.43 2.04c-.091.688-.325.653-.399.019l-.192-2.132c-.31-.046-.544-.081-.865-.05l-.664 2.005c-.247.664-.402.641-.389-.058l-.036-2.11c-.311-.045-.544-.08-.845-.202l-.887 1.894c-.237.588-.47.553-.379-.134l.197-2.075c-.3-.122-.534-.157-.757-.268l-1.188 1.772c-.314.577-.548.542-.378-.134l.43-2.04c-.223-.111-.524-.234-.747-.345l-1.333 1.673c-.393.565-.616.454-.369-.21l.664-2.006c-.223-.111-.436-.299-.737-.421l-1.546 1.485c-.46.477-.605.378-.369-.21l.965-1.883c-.213-.188-.426-.375-.65-.486l-1.68 1.309c-.528.389-.673.29-.28-.276l1.187-1.771c-.213-.188-.426-.375-.551-.627l-1.786.903c-.605.378-.74.202-.28-.275l1.332-1.672c-.212-.188-.337-.44-.473-.616l-1.94.881c-.596.301-.731.125-.271-.352l1.546-1.485c-.125-.252-.26-.428-.386-.68l-2.066.628c-.663.214-.72.05-.193-.34l1.76-1.297c-.126-.253-.25-.505-.298-.746l-2.114.388c-.652.137-.71-.027-.104-.405l1.884-1.045c-.125-.252-.173-.493-.22-.734l-2.316.124c-.72.05-.778-.115-.105-.405l2.009-.793c-.047-.24-.084-.558-.132-.799l-2.208-.093c-.71-.028-.69-.18-.026-.394l2.066-.628c-.047-.241-.007-.547-.054-.788l-2.167-.399c-.7-.104-.67-.333-.027-.394l2.191-.376c.03-.23-.006-.546.024-.775l-2.137-.629c-.69-.18-.66-.41.051-.382l2.228-.06.102-.763-2.028-.846c-.602-.246-.572-.475.128-.371l2.198.17c.03-.23.15-.523.257-.741l-1.92-1.064c-.591-.321-.571-.474.129-.37l2.167.399c.108-.218.227-.512.335-.73l-1.812-1.281c-.581-.398-.483-.54.207-.36l2.126.706c.108-.218.294-.424.403-.642l-1.626-1.488c-.494-.462-.396-.604.206-.358l2.019.922c.186-.206.294-.424.48-.63l-1.44-1.694c-.483-.539-.307-.669.274-.27l1.91 1.14c.186-.207.362-.337.548-.543l-1.254-1.9c-.395-.604-.23-.657.274-.27l1.802 1.357c.186-.206.44-.324.626-.53l-.98-2.171c-.317-.593-.142-.723.352-.26l1.616 1.564c.176-.13.43-.248.683-.366l-.757-2.06c-.23-.658-.064-.71.342-.183l1.43 1.77c.253-.118.507-.236.683-.366l-.503-2.178c-.152-.646.014-.7.419-.172l1.176 1.889c.254-.119.497-.16.74-.202l-.259-2.22c-.064-.711.102-.764.41-.095l.922 2.006.73-.125.052-2.174c.013-.7.169-.676.399-.019l.668 2.125c.244-.042.565-.072.798-.037l.295-2.216c.092-.688.247-.665.4-.019l.502 2.178c.234.035.555.005.788.04l.518-2.106c.17-.676.325-.653.39.058zm-3.653 29.222c7.388 1.096 14.16-3.9 15.126-11.159.967-7.258-4.238-14.03-11.626-15.125S22.56 25.77 21.594 33.028c-.967 7.26 4.305 14.119 11.693 15.214"/><path fill="url(#b)" d="M62.366 36.439c1.012-.156 1.012-.39 0-.623l-2.88-.545v-1.402l2.802-.7c1.013-.234.935-.546-.077-.623l-2.881-.234c-.078-.467-.078-.857-.156-1.324l2.725-1.012c.934-.39.934-.623-.078-.623l-2.88.078c-.079-.467-.234-.856-.312-1.324l2.57-1.323c.934-.467.778-.7-.156-.545l-2.881.467c-.156-.39-.312-.857-.467-1.246l2.413-1.635c.857-.623.701-.856-.233-.545l-2.803.779c-.234-.39-.39-.779-.623-1.168l2.18-1.947c.779-.7.623-.934-.311-.545l-2.648 1.09c-.233-.389-.545-.778-.778-1.09l1.946-2.18c.7-.778.545-.934-.39-.467l-2.724 1.402c-.312-.312-.545-.701-.857-1.013l1.713-2.413c.623-.857.39-1.012-.467-.467l-2.336 1.712c-.311-.311-.623-.622-1.012-.856l1.401-2.57c.468-.934.234-1.09-.467-.389l-2.102 1.947c-.39-.234-.7-.545-1.09-.779l1.09-2.725c.39-.934.156-1.09-.545-.311l-1.868 2.18c-.39-.234-.78-.39-1.168-.623l.7-2.803c.234-1.012 0-1.09-.545-.234l-1.557 2.414c-.39-.156-.856-.312-1.246-.467l.39-2.881c.155-1.012-.078-1.09-.545-.156l-1.324 2.57c-.39-.156-.856-.234-1.324-.312l.078-2.88c0-1.013-.233-1.09-.623-.078l-1.012 2.725c-.467-.078-.856-.156-1.323-.156l-.468-2.803c-.077-1.012-.389-1.012-.623-.078l-.7 2.803H34.57l-.623-2.88c-.233-1.013-.467-1.013-.623 0l-.311 2.88c-.467 0-.856.078-1.324.156l-1.012-2.725c-.311-.935-.623-.935-.623.078l.078 2.88a8 8 0 0 0-1.324.312l-1.245-2.647c-.467-.935-.701-.857-.623.155l.311 2.881c-.389.156-.856.311-1.245.467l-1.558-2.413c-.545-.857-.778-.779-.545.233l.701 2.803c-.39.156-.778.39-1.168.623l-1.869-2.258c-.622-.778-.856-.623-.544.312l1.012 2.725c-.39.233-.779.467-1.09.7l-2.103-2.024c-.778-.7-.934-.545-.467.39l1.324 2.569c-.312.311-.7.545-1.012.856l-2.336-1.713c-.856-.623-1.012-.39-.467.39l1.635 2.413c-.312.312-.623.623-.934 1.012l-2.492-1.479c-.857-.545-1.09-.311-.39.467l1.87 2.18c-.234.312-.546.701-.78 1.09l-2.646-1.168c-.935-.389-1.09-.155-.312.545l2.18 1.947c-.234.39-.467.779-.623 1.168l-2.803-.779c-1.012-.311-1.09 0-.233.545l2.335 1.635c-.155.39-.389.779-.545 1.246l-2.88-.467c-1.013-.156-1.09.078-.234.545l2.57 1.401c-.156.39-.234.857-.39 1.246l-2.88-.078c-1.013 0-1.09.234-.156.623l2.725 1.012c-.078.468-.156.857-.234 1.324l-2.88.39c-1.013.077-1.013.31-.079.622l2.803.779c0 .467-.077.856-.077 1.323l-2.881.545c-1.012.156-1.012.468 0 .623l2.88.39c0 .467.078.856.078 1.323l-2.803.857c-1.012.311-.934.545.078.623l2.881.077c.078.468.156.857.234 1.324l-2.648 1.246c-.934.467-.856.7.156.623l2.881-.312c.156.467.234.857.39 1.324l-2.492 1.48c-.857.544-.779.778.233.544l2.881-.623c.156.39.39.779.545 1.246l-2.258 1.79c-.778.624-.7.857.312.546l2.725-.934.7 1.168-1.868 1.868c-.7.7-.545.934.311.467l2.648-1.245c.233.389.545.7.856 1.012l-1.79 2.258c-.624.778-.468 1.012.389.467l2.413-1.557.935.934-1.48 2.492c-.545.856-.311 1.012.467.389l2.258-1.869c.312.312.701.545 1.09.857l-1.245 2.647c-.468.934-.234 1.09.467.311l2.024-2.102 1.168.7-.934 2.726c-.312.934-.078 1.09.545.311l1.79-2.336c.39.156.78.39 1.246.545l-.545 2.881c-.233 1.013.078 1.09.545.234l1.48-2.492c.389.156.856.312 1.245.39l-.311 2.958c-.078 1.013.156 1.09.623.156l1.168-2.647c.467.078.856.156 1.323.233l.156 2.881c.078 1.013.311 1.013.623.078l.779-2.803c.467.078.934.078 1.323.078l.467 2.88c.156 1.013.39 1.013.623 0l.545-2.88c.467 0 .857 0 1.324-.078l.778 2.803c.312 1.012.545.934.623-.078l.156-2.88c.467-.078.857-.156 1.324-.234l1.09 2.647c.389.934.623.857.623-.156l-.312-2.725c.467-.078.857-.233 1.246-.389l1.48 2.491c.544.857.778.78.544-.233l-.545-2.88c.39-.157.857-.312 1.246-.546l1.713 2.336c.623.856.856.7.545-.312l-.779-2.647 1.168-.7 1.947 2.102c.7.778.934.623.545-.312l-1.168-2.647c.39-.234.7-.545 1.09-.779l2.258 1.87c.778.622 1.012.466.467-.39l-1.48-2.492.935-.934 2.414 1.557c.856.545 1.012.39.389-.467l-1.79-2.258c.31-.311.544-.7.856-1.012l2.647 1.323c.934.468 1.09.234.39-.467l-2.103-2.102c.233-.39.467-.7.7-1.09l2.726.934c.934.312 1.09.078.311-.545l-2.258-1.79c.234-.39.39-.78.623-1.246l2.803.623c1.012.233 1.09 0 .234-.545l-2.492-1.558c.156-.389.312-.856.467-1.245l2.881.311c1.012.078 1.09-.156.156-.623l-2.647-1.245c.078-.468.233-.857.311-1.324l2.88-.078c1.013 0 1.091-.311.079-.623l-2.725-.7c.078-.468.078-.857.155-1.324zM24.838 50.141c-.779 1.401-2.803 1.557-4.05.856-.855-.467-2.88-2.413-4.748-5.45-1.713-3.114-2.648-6.618-2.648-10.433 0-6.385 2.725-12.068 7.163-16.04 1.402-.778 3.348-.622 4.127.701l7.708 13.237c.623 1.09.623 3.192-.078 4.282zm26.861-1.402c-2.491 2.959-5.683 5.295-9.42 6.618-4.828 1.402-11.135 1.48-13.548.156-1.635-.778-2.258-2.491-1.48-3.893l7.63-13.236c.624-1.09 2.259-2.024 3.504-2.024h14.872c1.635 0 2.725 1.401 2.725 2.803 0 1.245-1.013 5.528-4.283 9.576M33.87 35.037c0-.623.545-1.168 1.168-1.168s1.168.545 1.168 1.168-.545 1.168-1.168 1.168-1.168-.545-1.168-1.168m19.699-1.401H37.996c-1.324-.078-2.88-1.168-3.504-2.336l-7.396-12.847c-.779-1.402.078-2.959 1.323-3.66.857-.467 3.582-1.323 7.163-1.323 10.2.233 18.609 7.63 20.555 17.285.234 1.635-1.168 2.88-2.569 2.88"/><defs><linearGradient id="a" x1="35.026" x2="35.026" y1=".022" y2="70.073" gradientUnits="userSpaceOnUse"><stop stop-color="#d3d7dd"/><stop offset="1" stop-color="#888c90"/></linearGradient><linearGradient id="b" x1="35.022" x2="35.022" y1="6.965" y2="63.186" gradientUnits="userSpaceOnUse"><stop stop-color="#d9dadb"/><stop offset="1" stop-color="#7d8082"/></linearGradient></defs></svg>