<svg width="65" height="65" viewBox="0 0 65 65" fill="none" xmlns="http://www.w3.org/2000/svg">
<path d="M41.7558 0C48.1688 0 51.3753 0 54.8668 1.06883C58.6434 2.42269 61.6361 5.41543 62.99 9.19197C64.1301 12.6835 64.1301 15.9613 64.1301 22.3743V41.7558C64.1301 48.1688 64.13 51.3753 63.0612 54.8668C61.7074 58.6434 58.7146 61.6361 54.9381 62.99C51.3753 64.1301 48.1688 64.1301 41.7558 64.1301H22.3743C15.9613 64.1301 12.7548 64.13 9.26323 63.0612C5.41543 61.6361 2.49395 58.7146 1.06883 54.8668C0 51.4465 0 48.24 0 41.7558V22.3743C0 15.9613 0 12.7548 1.06883 9.26323C2.49395 5.48668 5.41543 2.49395 9.26323 1.14009C12.6835 -7.6449e-08 15.89 0 22.3743 0H41.7558Z" fill="url(#paint0_linear_348_1782)"/>
<path d="M32.0651 59.8538C47.4129 59.8538 59.8548 47.4119 59.8548 32.0641C59.8548 16.7163 47.4129 4.27441 32.0651 4.27441C16.7173 4.27441 4.27539 16.7163 4.27539 32.0641C4.27539 47.4119 16.7173 59.8538 32.0651 59.8538Z" fill="#2E2E30"/>
<path d="M33.8067 17.4058C33.8778 17.4163 33.949 17.4269 34.0202 17.4375C34.1625 17.4586 34.376 17.4902 34.5184 17.5113L35.2772 15.6272C35.5034 15.019 35.6364 15.11 35.6331 15.68L35.5859 17.6696C35.7994 17.7013 36.0748 17.8135 36.2883 17.8451L37.2514 16.0626C37.5394 15.5349 37.6818 15.556 37.598 16.1853L37.2661 18.1327C37.4703 18.2343 37.7457 18.3465 37.9592 18.3781L39.1172 16.7671C39.4763 16.2499 39.6094 16.341 39.4544 16.9598L38.909 18.8755C39.1132 18.9771 39.3886 19.0892 39.5835 19.2608L40.8745 17.7408C41.2955 17.3041 41.4286 17.3951 41.2118 17.9334L40.4529 19.8175C40.6478 19.989 40.852 20.0906 41.0469 20.2622L42.5328 18.9137C43.025 18.4876 43.158 18.5786 42.8607 19.1763L41.9069 20.8888C42.1018 21.0604 42.2967 21.2319 42.4204 21.3928L44.0919 20.2859C44.5748 19.9296 44.7078 20.0207 44.3487 20.5379L43.1009 22.2781C43.2958 22.4497 43.4195 22.6106 43.6051 22.8521L45.391 21.976C45.9357 21.7002 46.0688 21.7913 45.6384 22.2979L44.2856 23.7374C44.4093 23.8983 44.5949 24.1398 44.7093 24.3707L46.6189 23.6555C47.2255 23.4603 47.2781 23.6107 46.7952 23.9669L45.2474 25.2348C45.3618 25.4657 45.4762 25.6966 45.5906 25.9275L47.5435 25.4327C48.1408 25.3074 48.1934 25.4578 47.7198 25.7441L46.0483 26.8511C46.1627 27.082 46.2059 27.3023 46.3204 27.5332L48.3165 27.2587C48.9044 27.2033 49.0282 27.3643 48.4123 27.6295L46.6264 28.5056C46.6696 28.7259 46.784 28.9568 46.8179 29.2471L48.7768 29.2523C49.4266 29.2774 49.408 29.4172 48.8726 29.6231L47.0435 30.2788C47.0867 30.4991 47.1206 30.7894 47.1639 31.0097L49.166 31.2353C49.8065 31.3303 49.7879 31.4702 49.1906 31.5955L47.247 32.0204C47.2903 32.2407 47.253 32.5204 47.2251 32.7302L49.1188 33.225C49.75 33.3899 49.7314 33.5297 49.0722 33.5746L47.0855 33.7791C47.0575 33.9889 47.0203 34.2686 46.9924 34.4784C46.9924 34.4784 46.9924 34.4784 46.983 34.5483L48.8581 35.1829C49.48 35.4178 49.4614 35.5576 48.8116 35.5326L46.8527 35.5273C46.8155 35.807 46.7164 36.0062 46.6791 36.2859L48.4458 37.1897C48.9872 37.4839 48.9686 37.6238 48.3281 37.5288L46.4064 37.2438C46.3073 37.443 46.2701 37.7228 46.171 37.922L47.8385 39.025C48.3707 39.3891 48.2809 39.5184 47.7208 39.364L45.8271 38.8693C45.728 39.0685 45.6196 39.3377 45.5205 39.5369L47.0178 40.8286C47.4695 41.2521 47.4508 41.3919 46.8289 41.1571L45.0343 40.4631C44.8641 40.6518 44.7556 40.9209 44.5854 41.1096L45.9217 42.52C46.3733 42.9435 46.2742 43.1428 45.6616 42.838L43.861 41.644C43.6908 41.8327 43.5205 42.0213 43.3502 42.21L44.5256 43.7391C44.8967 44.222 44.807 44.3513 44.2748 43.9872L42.6784 42.8948C42.5082 43.0834 42.3379 43.2721 42.1058 43.3803L43.1202 45.0282C43.4108 45.5705 43.3211 45.6998 42.7982 45.2657L41.301 43.974C41.0595 44.1522 40.8985 44.2709 40.6664 44.3791L41.4487 46.1352C41.73 46.7474 41.5784 46.7962 41.1361 46.3027L39.7997 44.8923C39.5676 45.0005 39.3355 45.1087 39.1033 45.2169L39.6535 47.0812C39.8637 47.6828 39.712 47.7317 39.3409 47.2488L38.246 45.6602C38.0138 45.7684 37.7817 45.8766 37.4784 45.9743L37.8057 47.8768C37.9447 48.4679 37.7931 48.5167 37.4312 47.9639L36.4973 46.2566C36.2745 46.2949 35.9712 46.3925 35.7484 46.4308L35.8622 48.3017C35.9207 48.9521 35.7072 48.9205 35.4877 48.3888L34.758 46.7831C34.5352 46.8213 34.2412 46.8491 34.0183 46.8873L33.9093 48.7965C33.8967 49.4364 33.6832 49.4047 33.5441 48.8136L32.994 46.9493C32.7712 46.9876 32.4865 46.9454 32.1925 46.9731L31.7988 48.84C31.715 49.4694 31.5015 49.4377 31.4336 48.8572L31.258 46.9058C30.9733 46.8636 30.7598 46.8319 30.4658 46.8597L29.8586 48.6949C29.6324 49.3032 29.4901 49.2821 29.5027 48.6422L29.4694 46.7119C29.1847 46.6697 28.9712 46.638 28.6958 46.5259L27.8844 48.2596C27.6676 48.7979 27.454 48.7662 27.5378 48.1369L27.718 46.2383C27.4427 46.1261 27.2292 46.0945 27.0249 45.9929L25.9381 47.6144C25.6501 48.1422 25.4366 48.1105 25.5916 47.4917L25.9853 45.6248C25.7811 45.5232 25.5057 45.411 25.3015 45.3095L24.0817 46.84C23.7225 47.3572 23.5183 47.2556 23.7445 46.6473L24.3517 44.8121C24.1475 44.7105 23.9526 44.539 23.6772 44.4268L22.2625 45.7858C21.8415 46.2225 21.7084 46.1315 21.9252 45.5932L22.8079 43.87C22.613 43.6985 22.4181 43.527 22.2139 43.4254L20.6754 44.6234C20.1925 44.9797 20.0595 44.8886 20.4187 44.3714L21.5055 42.7499C21.3106 42.5784 21.1157 42.4069 21.0013 42.176L19.367 43.0033C18.813 43.3489 18.6892 43.188 19.1103 42.7513L20.3301 41.2208C20.1352 41.0492 20.0208 40.8184 19.8971 40.6574L18.1205 41.4636C17.5757 41.7393 17.452 41.5784 17.873 41.1416L19.2878 39.7827C19.1734 39.5518 19.0496 39.3908 18.9352 39.1599L17.0442 39.7352C16.4376 39.9305 16.3851 39.78 16.868 39.4238L18.4776 38.2363C18.3632 38.0055 18.2488 37.7746 18.2055 37.5542L16.2713 37.9092C15.674 38.0345 15.6214 37.8841 16.1755 37.5384L17.8995 36.5819C17.7851 36.351 17.7419 36.1306 17.6986 35.9103L15.5788 36.0238C14.9196 36.0687 14.8671 35.9182 15.483 35.653L17.3215 34.9274C17.2782 34.707 17.2443 34.4168 17.2011 34.1964L15.1803 34.1107C14.5305 34.0856 14.5491 33.9458 15.1557 33.7505L17.0467 33.1752C17.0035 32.9549 17.0407 32.6752 16.9975 32.4548L15.014 32.0894C14.3734 31.9944 14.4014 31.7846 14.9894 31.7292L16.9948 31.3848C17.0227 31.175 16.9888 30.8848 17.0167 30.675L15.0612 30.0998C14.4299 29.9349 14.4579 29.7251 15.1077 29.7501L17.147 29.696C17.175 29.4862 17.2122 29.2065 17.2401 28.9967L15.3837 28.2223C14.833 27.998 14.8609 27.7882 15.5014 27.8832L17.5128 28.0389C17.5408 27.8291 17.6492 27.5599 17.7483 27.3607L15.9909 26.387C15.4495 26.0928 15.4681 25.953 16.1086 26.048L18.0921 26.4134C18.1912 26.2142 18.2996 25.945 18.3987 25.7458L16.7405 24.5729C16.2084 24.2087 16.2982 24.0794 16.9294 24.2443L18.8756 24.8895C18.9747 24.6903 19.145 24.5016 19.2441 24.3024L17.7561 22.9408C17.3045 22.5173 17.3943 22.388 17.945 22.6123L19.7922 23.4566C19.9624 23.268 20.0615 23.0687 20.2318 22.8801L18.9141 21.3298C18.4718 20.8364 18.6327 20.7176 19.1649 21.0818L20.9129 22.1254C21.0832 21.9367 21.2441 21.818 21.4144 21.6293L20.267 19.8904C19.9051 19.3375 20.0568 19.2887 20.5177 19.6423L22.1667 20.8851C22.3369 20.6965 22.5691 20.5883 22.7393 20.3996L21.8427 18.4126C21.552 17.8704 21.713 17.7516 22.1646 18.1751L23.6433 19.6066C23.8042 19.4879 24.0364 19.3797 24.2685 19.2715L23.576 17.3861C23.3658 16.7845 23.5175 16.7357 23.8886 17.2186L25.197 18.8387C25.4292 18.7306 25.6613 18.6224 25.8223 18.5036L25.3619 16.51C25.2229 15.919 25.3745 15.8701 25.7457 16.353L26.822 18.0814C27.0541 17.9732 27.2769 17.9349 27.4997 17.8967L27.2622 15.8648C27.2037 15.2144 27.3553 15.1656 27.6367 15.7778L28.4808 17.6143C28.7036 17.5761 28.9265 17.5378 29.1493 17.4995L29.1965 15.5099C29.2091 14.87 29.3514 14.8911 29.5616 15.4927L30.1736 17.4375C30.3964 17.3992 30.6904 17.3715 30.9039 17.4032L31.1739 15.3753C31.2577 14.746 31.4001 14.7671 31.5391 15.3581L31.9994 17.3517C32.213 17.3834 32.507 17.3557 32.7205 17.3873L33.1947 15.461C33.3496 14.8422 33.492 14.8633 33.5505 15.5138L33.8067 17.4058ZM30.4637 44.1497C37.225 45.1523 43.422 40.5806 44.3065 33.9375C45.1909 27.2944 40.4276 21.0973 33.6664 20.0947C26.9051 19.092 20.6462 23.5833 19.7618 30.2264C18.8773 36.8695 23.7025 43.147 30.4637 44.1497Z" fill="black"/>
<path d="M33.8067 17.4058C33.8778 17.4163 33.949 17.4269 34.0202 17.4375C34.1625 17.4586 34.376 17.4902 34.5184 17.5113L35.2772 15.6272C35.5034 15.019 35.6364 15.11 35.6331 15.68L35.5859 17.6696C35.7994 17.7013 36.0748 17.8135 36.2883 17.8451L37.2514 16.0626C37.5394 15.5349 37.6818 15.556 37.598 16.1853L37.2661 18.1327C37.4703 18.2343 37.7457 18.3465 37.9592 18.3781L39.1172 16.7671C39.4763 16.2499 39.6094 16.341 39.4544 16.9598L38.909 18.8755C39.1132 18.9771 39.3886 19.0892 39.5835 19.2608L40.8745 17.7408C41.2955 17.3041 41.4286 17.3951 41.2118 17.9334L40.4529 19.8175C40.6478 19.989 40.852 20.0906 41.0469 20.2622L42.5328 18.9137C43.025 18.4876 43.158 18.5786 42.8607 19.1763L41.9069 20.8888C42.1018 21.0604 42.2967 21.2319 42.4204 21.3928L44.0919 20.2859C44.5748 19.9296 44.7078 20.0207 44.3487 20.5379L43.1009 22.2781C43.2958 22.4497 43.4195 22.6106 43.6051 22.8521L45.391 21.976C45.9357 21.7002 46.0688 21.7913 45.6384 22.2979L44.2856 23.7374C44.4093 23.8983 44.5949 24.1398 44.7093 24.3707L46.6189 23.6555C47.2255 23.4603 47.2781 23.6107 46.7952 23.9669L45.2474 25.2348C45.3618 25.4657 45.4762 25.6966 45.5906 25.9275L47.5435 25.4327C48.1408 25.3074 48.1934 25.4578 47.7198 25.7441L46.0483 26.8511C46.1627 27.082 46.2059 27.3023 46.3204 27.5332L48.3165 27.2587C48.9044 27.2033 49.0282 27.3643 48.4123 27.6295L46.6264 28.5056C46.6696 28.7259 46.784 28.9568 46.8179 29.2471L48.7768 29.2523C49.4266 29.2774 49.408 29.4172 48.8726 29.6231L47.0435 30.2788C47.0867 30.4991 47.1206 30.7894 47.1639 31.0097L49.166 31.2353C49.8065 31.3303 49.7879 31.4702 49.1906 31.5955L47.247 32.0204C47.2903 32.2407 47.253 32.5204 47.2251 32.7302L49.1188 33.225C49.75 33.3899 49.7314 33.5297 49.0722 33.5746L47.0855 33.7791C47.0575 33.9889 47.0203 34.2686 46.9924 34.4784C46.9924 34.4784 46.9924 34.4784 46.983 34.5483L48.8581 35.1829C49.48 35.4178 49.4614 35.5576 48.8116 35.5326L46.8527 35.5273C46.8155 35.807 46.7164 36.0062 46.6791 36.2859L48.4458 37.1897C48.9872 37.4839 48.9686 37.6238 48.3281 37.5288L46.4064 37.2438C46.3073 37.443 46.2701 37.7228 46.171 37.922L47.8385 39.025C48.3707 39.3891 48.2809 39.5184 47.7208 39.364L45.8271 38.8693C45.728 39.0685 45.6196 39.3377 45.5205 39.5369L47.0178 40.8286C47.4695 41.2521 47.4508 41.3919 46.8289 41.1571L45.0343 40.4631C44.8641 40.6518 44.7556 40.9209 44.5854 41.1096L45.9217 42.52C46.3733 42.9435 46.2742 43.1428 45.6616 42.838L43.861 41.644C43.6908 41.8327 43.5205 42.0213 43.3502 42.21L44.5256 43.7391C44.8967 44.222 44.807 44.3513 44.2748 43.9872L42.6784 42.8948C42.5082 43.0834 42.3379 43.2721 42.1058 43.3803L43.1202 45.0282C43.4108 45.5705 43.3211 45.6998 42.7982 45.2657L41.301 43.974C41.0595 44.1522 40.8985 44.2709 40.6664 44.3791L41.4487 46.1352C41.73 46.7474 41.5784 46.7962 41.1361 46.3027L39.7997 44.8923C39.5676 45.0005 39.3355 45.1087 39.1033 45.2169L39.6535 47.0812C39.8637 47.6828 39.712 47.7317 39.3409 47.2488L38.246 45.6602C38.0138 45.7684 37.7817 45.8766 37.4784 45.9743L37.8057 47.8768C37.9447 48.4679 37.7931 48.5167 37.4312 47.9639L36.4973 46.2566C36.2745 46.2949 35.9712 46.3925 35.7484 46.4308L35.8622 48.3017C35.9207 48.9521 35.7072 48.9205 35.4877 48.3888L34.758 46.7831C34.5352 46.8213 34.2412 46.8491 34.0183 46.8873L33.9093 48.7965C33.8967 49.4364 33.6832 49.4047 33.5441 48.8136L32.994 46.9493C32.7712 46.9876 32.4865 46.9454 32.1925 46.9731L31.7988 48.84C31.715 49.4694 31.5015 49.4377 31.4336 48.8572L31.258 46.9058C30.9733 46.8636 30.7598 46.8319 30.4658 46.8597L29.8586 48.6949C29.6324 49.3032 29.4901 49.2821 29.5027 48.6422L29.4694 46.7119C29.1847 46.6697 28.9712 46.638 28.6958 46.5259L27.8844 48.2596C27.6676 48.7979 27.454 48.7662 27.5378 48.1369L27.718 46.2383C27.4427 46.1261 27.2292 46.0945 27.0249 45.9929L25.9381 47.6144C25.6501 48.1422 25.4366 48.1105 25.5916 47.4917L25.9853 45.6248C25.7811 45.5232 25.5057 45.411 25.3015 45.3095L24.0817 46.84C23.7225 47.3572 23.5183 47.2556 23.7445 46.6473L24.3517 44.8121C24.1475 44.7105 23.9526 44.539 23.6772 44.4268L22.2625 45.7858C21.8415 46.2225 21.7084 46.1315 21.9252 45.5932L22.8079 43.87C22.613 43.6985 22.4181 43.527 22.2139 43.4254L20.6754 44.6234C20.1925 44.9797 20.0595 44.8886 20.4187 44.3714L21.5055 42.7499C21.3106 42.5784 21.1157 42.4069 21.0013 42.176L19.367 43.0033C18.813 43.3489 18.6892 43.188 19.1103 42.7513L20.3301 41.2208C20.1352 41.0492 20.0208 40.8184 19.8971 40.6574L18.1205 41.4636C17.5757 41.7393 17.452 41.5784 17.873 41.1416L19.2878 39.7827C19.1734 39.5518 19.0496 39.3908 18.9352 39.1599L17.0442 39.7352C16.4376 39.9305 16.3851 39.78 16.868 39.4238L18.4776 38.2363C18.3632 38.0055 18.2488 37.7746 18.2055 37.5542L16.2713 37.9092C15.674 38.0345 15.6214 37.8841 16.1755 37.5384L17.8995 36.5819C17.7851 36.351 17.7419 36.1306 17.6986 35.9103L15.5788 36.0238C14.9196 36.0687 14.8671 35.9182 15.483 35.653L17.3215 34.9274C17.2782 34.707 17.2443 34.4168 17.2011 34.1964L15.1803 34.1107C14.5305 34.0856 14.5491 33.9458 15.1557 33.7505L17.0467 33.1752C17.0035 32.9549 17.0407 32.6752 16.9975 32.4548L15.014 32.0894C14.3734 31.9944 14.4014 31.7846 14.9894 31.7292L16.9948 31.3848C17.0227 31.175 16.9888 30.8848 17.0167 30.675L15.0612 30.0998C14.4299 29.9349 14.4579 29.7251 15.1077 29.7501L17.147 29.696C17.175 29.4862 17.2122 29.2065 17.2401 28.9967L15.3837 28.2223C14.833 27.998 14.8609 27.7882 15.5014 27.8832L17.5128 28.0389C17.5408 27.8291 17.6492 27.5599 17.7483 27.3607L15.9909 26.387C15.4495 26.0928 15.4681 25.953 16.1086 26.048L18.0921 26.4134C18.1912 26.2142 18.2996 25.945 18.3987 25.7458L16.7405 24.5729C16.2084 24.2087 16.2982 24.0794 16.9294 24.2443L18.8756 24.8895C18.9747 24.6903 19.145 24.5016 19.2441 24.3024L17.7561 22.9408C17.3045 22.5173 17.3943 22.388 17.945 22.6123L19.7922 23.4566C19.9624 23.268 20.0615 23.0687 20.2318 22.8801L18.9141 21.3298C18.4718 20.8364 18.6327 20.7176 19.1649 21.0818L20.9129 22.1254C21.0832 21.9367 21.2441 21.818 21.4144 21.6293L20.267 19.8904C19.9051 19.3375 20.0568 19.2887 20.5177 19.6423L22.1667 20.8851C22.3369 20.6965 22.5691 20.5883 22.7393 20.3996L21.8427 18.4126C21.552 17.8704 21.713 17.7516 22.1646 18.1751L23.6433 19.6066C23.8042 19.4879 24.0364 19.3797 24.2685 19.2715L23.576 17.3861C23.3658 16.7845 23.5175 16.7357 23.8886 17.2186L25.197 18.8387C25.4292 18.7306 25.6613 18.6224 25.8223 18.5036L25.3619 16.51C25.2229 15.919 25.3745 15.8701 25.7457 16.353L26.822 18.0814C27.0541 17.9732 27.2769 17.9349 27.4997 17.8967L27.2622 15.8648C27.2037 15.2144 27.3553 15.1656 27.6367 15.7778L28.4808 17.6143C28.7036 17.5761 28.9265 17.5378 29.1493 17.4995L29.1965 15.5099C29.2091 14.87 29.3514 14.8911 29.5616 15.4927L30.1736 17.4375C30.3964 17.3992 30.6904 17.3715 30.9039 17.4032L31.1739 15.3753C31.2577 14.746 31.4001 14.7671 31.5391 15.3581L31.9994 17.3517C32.213 17.3834 32.507 17.3557 32.7205 17.3873L33.1947 15.461C33.3496 14.8422 33.492 14.8633 33.5505 15.5138L33.8067 17.4058ZM30.4637 44.1497C37.225 45.1523 43.422 40.5806 44.3065 33.9375C45.1909 27.2944 40.4276 21.0973 33.6664 20.0947C26.9051 19.092 20.6462 23.5833 19.7618 30.2264C18.8773 36.8695 23.7025 43.147 30.4637 44.1497Z" fill="#7F7F7F"/>
<path d="M33.8067 17.4058C33.8778 17.4163 33.949 17.4269 34.0202 17.4375C34.1625 17.4586 34.376 17.4902 34.5184 17.5113L35.2772 15.6272C35.5034 15.019 35.6364 15.11 35.6331 15.68L35.5859 17.6696C35.7994 17.7013 36.0748 17.8135 36.2883 17.8451L37.2514 16.0626C37.5394 15.5349 37.6818 15.556 37.598 16.1853L37.2661 18.1327C37.4703 18.2343 37.7457 18.3465 37.9592 18.3781L39.1172 16.7671C39.4763 16.2499 39.6094 16.341 39.4544 16.9598L38.909 18.8755C39.1132 18.9771 39.3886 19.0892 39.5835 19.2608L40.8745 17.7408C41.2955 17.3041 41.4286 17.3951 41.2118 17.9334L40.4529 19.8175C40.6478 19.989 40.852 20.0906 41.0469 20.2622L42.5328 18.9137C43.025 18.4876 43.158 18.5786 42.8607 19.1763L41.9069 20.8888C42.1018 21.0604 42.2967 21.2319 42.4204 21.3928L44.0919 20.2859C44.5748 19.9296 44.7078 20.0207 44.3487 20.5379L43.1009 22.2781C43.2958 22.4497 43.4195 22.6106 43.6051 22.8521L45.391 21.976C45.9357 21.7002 46.0688 21.7913 45.6384 22.2979L44.2856 23.7374C44.4093 23.8983 44.5949 24.1398 44.7093 24.3707L46.6189 23.6555C47.2255 23.4603 47.2781 23.6107 46.7952 23.9669L45.2474 25.2348C45.3618 25.4657 45.4762 25.6966 45.5906 25.9275L47.5435 25.4327C48.1408 25.3074 48.1934 25.4578 47.7198 25.7441L46.0483 26.8511C46.1627 27.082 46.2059 27.3023 46.3204 27.5332L48.3165 27.2587C48.9044 27.2033 49.0282 27.3643 48.4123 27.6295L46.6264 28.5056C46.6696 28.7259 46.784 28.9568 46.8179 29.2471L48.7768 29.2523C49.4266 29.2774 49.408 29.4172 48.8726 29.6231L47.0435 30.2788C47.0867 30.4991 47.1206 30.7894 47.1639 31.0097L49.166 31.2353C49.8065 31.3303 49.7879 31.4702 49.1906 31.5955L47.247 32.0204C47.2903 32.2407 47.253 32.5204 47.2251 32.7302L49.1188 33.225C49.75 33.3899 49.7314 33.5297 49.0722 33.5746L47.0855 33.7791C47.0575 33.9889 47.0203 34.2686 46.9924 34.4784C46.9924 34.4784 46.9924 34.4784 46.983 34.5483L48.8581 35.1829C49.48 35.4178 49.4614 35.5576 48.8116 35.5326L46.8527 35.5273C46.8155 35.807 46.7164 36.0062 46.6791 36.2859L48.4458 37.1897C48.9872 37.4839 48.9686 37.6238 48.3281 37.5288L46.4064 37.2438C46.3073 37.443 46.2701 37.7228 46.171 37.922L47.8385 39.025C48.3707 39.3891 48.2809 39.5184 47.7208 39.364L45.8271 38.8693C45.728 39.0685 45.6196 39.3377 45.5205 39.5369L47.0178 40.8286C47.4695 41.2521 47.4508 41.3919 46.8289 41.1571L45.0343 40.4631C44.8641 40.6518 44.7556 40.9209 44.5854 41.1096L45.9217 42.52C46.3733 42.9435 46.2742 43.1428 45.6616 42.838L43.861 41.644C43.6908 41.8327 43.5205 42.0213 43.3502 42.21L44.5256 43.7391C44.8967 44.222 44.807 44.3513 44.2748 43.9872L42.6784 42.8948C42.5082 43.0834 42.3379 43.2721 42.1058 43.3803L43.1202 45.0282C43.4108 45.5705 43.3211 45.6998 42.7982 45.2657L41.301 43.974C41.0595 44.1522 40.8985 44.2709 40.6664 44.3791L41.4487 46.1352C41.73 46.7474 41.5784 46.7962 41.1361 46.3027L39.7997 44.8923C39.5676 45.0005 39.3355 45.1087 39.1033 45.2169L39.6535 47.0812C39.8637 47.6828 39.712 47.7317 39.3409 47.2488L38.246 45.6602C38.0138 45.7684 37.7817 45.8766 37.4784 45.9743L37.8057 47.8768C37.9447 48.4679 37.7931 48.5167 37.4312 47.9639L36.4973 46.2566C36.2745 46.2949 35.9712 46.3925 35.7484 46.4308L35.8622 48.3017C35.9207 48.9521 35.7072 48.9205 35.4877 48.3888L34.758 46.7831C34.5352 46.8213 34.2412 46.8491 34.0183 46.8873L33.9093 48.7965C33.8967 49.4364 33.6832 49.4047 33.5441 48.8136L32.994 46.9493C32.7712 46.9876 32.4865 46.9454 32.1925 46.9731L31.7988 48.84C31.715 49.4694 31.5015 49.4377 31.4336 48.8572L31.258 46.9058C30.9733 46.8636 30.7598 46.8319 30.4658 46.8597L29.8586 48.6949C29.6324 49.3032 29.4901 49.2821 29.5027 48.6422L29.4694 46.7119C29.1847 46.6697 28.9712 46.638 28.6958 46.5259L27.8844 48.2596C27.6676 48.7979 27.454 48.7662 27.5378 48.1369L27.718 46.2383C27.4427 46.1261 27.2292 46.0945 27.0249 45.9929L25.9381 47.6144C25.6501 48.1422 25.4366 48.1105 25.5916 47.4917L25.9853 45.6248C25.7811 45.5232 25.5057 45.411 25.3015 45.3095L24.0817 46.84C23.7225 47.3572 23.5183 47.2556 23.7445 46.6473L24.3517 44.8121C24.1475 44.7105 23.9526 44.539 23.6772 44.4268L22.2625 45.7858C21.8415 46.2225 21.7084 46.1315 21.9252 45.5932L22.8079 43.87C22.613 43.6985 22.4181 43.527 22.2139 43.4254L20.6754 44.6234C20.1925 44.9797 20.0595 44.8886 20.4187 44.3714L21.5055 42.7499C21.3106 42.5784 21.1157 42.4069 21.0013 42.176L19.367 43.0033C18.813 43.3489 18.6892 43.188 19.1103 42.7513L20.3301 41.2208C20.1352 41.0492 20.0208 40.8184 19.8971 40.6574L18.1205 41.4636C17.5757 41.7393 17.452 41.5784 17.873 41.1416L19.2878 39.7827C19.1734 39.5518 19.0496 39.3908 18.9352 39.1599L17.0442 39.7352C16.4376 39.9305 16.3851 39.78 16.868 39.4238L18.4776 38.2363C18.3632 38.0055 18.2488 37.7746 18.2055 37.5542L16.2713 37.9092C15.674 38.0345 15.6214 37.8841 16.1755 37.5384L17.8995 36.5819C17.7851 36.351 17.7419 36.1306 17.6986 35.9103L15.5788 36.0238C14.9196 36.0687 14.8671 35.9182 15.483 35.653L17.3215 34.9274C17.2782 34.707 17.2443 34.4168 17.2011 34.1964L15.1803 34.1107C14.5305 34.0856 14.5491 33.9458 15.1557 33.7505L17.0467 33.1752C17.0035 32.9549 17.0407 32.6752 16.9975 32.4548L15.014 32.0894C14.3734 31.9944 14.4014 31.7846 14.9894 31.7292L16.9948 31.3848C17.0227 31.175 16.9888 30.8848 17.0167 30.675L15.0612 30.0998C14.4299 29.9349 14.4579 29.7251 15.1077 29.7501L17.147 29.696C17.175 29.4862 17.2122 29.2065 17.2401 28.9967L15.3837 28.2223C14.833 27.998 14.8609 27.7882 15.5014 27.8832L17.5128 28.0389C17.5408 27.8291 17.6492 27.5599 17.7483 27.3607L15.9909 26.387C15.4495 26.0928 15.4681 25.953 16.1086 26.048L18.0921 26.4134C18.1912 26.2142 18.2996 25.945 18.3987 25.7458L16.7405 24.5729C16.2084 24.2087 16.2982 24.0794 16.9294 24.2443L18.8756 24.8895C18.9747 24.6903 19.145 24.5016 19.2441 24.3024L17.7561 22.9408C17.3045 22.5173 17.3943 22.388 17.945 22.6123L19.7922 23.4566C19.9624 23.268 20.0615 23.0687 20.2318 22.8801L18.9141 21.3298C18.4718 20.8364 18.6327 20.7176 19.1649 21.0818L20.9129 22.1254C21.0832 21.9367 21.2441 21.818 21.4144 21.6293L20.267 19.8904C19.9051 19.3375 20.0568 19.2887 20.5177 19.6423L22.1667 20.8851C22.3369 20.6965 22.5691 20.5883 22.7393 20.3996L21.8427 18.4126C21.552 17.8704 21.713 17.7516 22.1646 18.1751L23.6433 19.6066C23.8042 19.4879 24.0364 19.3797 24.2685 19.2715L23.576 17.3861C23.3658 16.7845 23.5175 16.7357 23.8886 17.2186L25.197 18.8387C25.4292 18.7306 25.6613 18.6224 25.8223 18.5036L25.3619 16.51C25.2229 15.919 25.3745 15.8701 25.7457 16.353L26.822 18.0814C27.0541 17.9732 27.2769 17.9349 27.4997 17.8967L27.2622 15.8648C27.2037 15.2144 27.3553 15.1656 27.6367 15.7778L28.4808 17.6143C28.7036 17.5761 28.9265 17.5378 29.1493 17.4995L29.1965 15.5099C29.2091 14.87 29.3514 14.8911 29.5616 15.4927L30.1736 17.4375C30.3964 17.3992 30.6904 17.3715 30.9039 17.4032L31.1739 15.3753C31.2577 14.746 31.4001 14.7671 31.5391 15.3581L31.9994 17.3517C32.213 17.3834 32.507 17.3557 32.7205 17.3873L33.1947 15.461C33.3496 14.8422 33.492 14.8633 33.5505 15.5138L33.8067 17.4058ZM30.4637 44.1497C37.225 45.1523 43.422 40.5806 44.3065 33.9375C45.1909 27.2944 40.4276 21.0973 33.6664 20.0947C26.9051 19.092 20.6462 23.5833 19.7618 30.2264C18.8773 36.8695 23.7025 43.147 30.4637 44.1497Z" fill="#777777"/>
<path d="M57.076 33.3464C58.0023 33.2039 58.0023 32.9901 57.076 32.7764L54.4396 32.2776C54.4396 32.2063 54.4396 32.1351 54.4396 32.0638C54.4396 31.7075 54.4396 31.3513 54.4396 30.995L57.0048 30.3537C57.9311 30.1399 57.8598 29.8549 56.9335 29.7836L54.2971 29.5699C54.2258 29.1423 54.2258 28.7861 54.1545 28.3585L56.6485 27.4322C57.5036 27.0759 57.5036 26.8622 56.5772 26.8622L53.9408 26.9334C53.8695 26.5059 53.727 26.1496 53.6558 25.7221L56.0072 24.5107C56.8623 24.0832 56.7197 23.8694 55.8647 24.0119L53.2282 24.4395C53.0857 24.0832 52.9432 23.6557 52.8007 23.2994L55.0096 21.803C55.7934 21.233 55.6509 21.0192 54.7958 21.3042L52.2306 22.0168C52.0169 21.6605 51.8744 21.3042 51.6606 20.948L53.6558 19.1666C54.3683 18.5253 54.2258 18.3115 53.3707 18.6678L50.948 19.6653C50.7343 19.3091 50.4493 18.9528 50.2355 18.6678L52.0169 16.6726C52.6582 15.9601 52.5157 15.8175 51.6606 16.2451L49.1667 17.5277C48.8816 17.2427 48.6679 16.8864 48.3828 16.6014L49.9505 14.3924C50.5205 13.6086 50.3067 13.4661 49.5229 13.9649L47.3853 15.5325C47.1002 15.2475 46.8152 14.9625 46.4589 14.7487L47.7415 12.3973C48.1691 11.5422 47.9553 11.3997 47.314 12.041L45.3901 13.8224C45.0338 13.6086 44.7488 13.3236 44.3925 13.1098L45.3901 10.6159C45.7464 9.76082 45.5326 9.61831 44.8913 10.3309L43.1812 12.326C42.8249 12.1123 42.4686 11.9697 42.1124 11.756L42.7537 9.19077C42.9674 8.26445 42.7537 8.1932 42.2549 8.97701L40.8298 11.1859C40.4735 11.0434 40.0459 10.9009 39.6897 10.7584L40.0459 8.12194C40.1885 7.19562 39.9747 7.12436 39.5472 7.97943L38.3358 10.3309C37.9795 10.1884 37.552 10.1171 37.1245 10.0458L37.1957 7.40938C37.1957 6.48306 36.982 6.41181 36.6257 7.33813L35.6993 9.83208C35.2718 9.76082 34.9155 9.68956 34.488 9.68956L34.0605 7.12436C33.9892 6.19804 33.7042 6.19804 33.4904 7.05311L32.8491 9.61831C32.5641 9.61831 32.2791 9.61831 31.9941 9.61831C31.8515 9.61831 31.709 9.61831 31.6378 9.61831L31.0677 6.98185C30.854 6.05553 30.6402 6.05553 30.4977 6.98185L30.2127 9.61831C29.7851 9.61831 29.4289 9.68956 29.0013 9.76082L28.075 7.26687C27.79 6.41181 27.505 6.41181 27.505 7.33813L27.5762 9.97459C27.1487 10.0458 26.7924 10.1171 26.3649 10.2596L25.2248 7.83692C24.7972 6.98185 24.5835 7.05311 24.6547 7.97943L24.9398 10.6159C24.5835 10.7584 24.1559 10.9009 23.7997 11.0434L22.3746 8.8345C21.8758 8.05069 21.662 8.12194 21.8758 9.04826L22.5171 11.6135C22.1608 11.756 21.8045 11.9697 21.4482 12.1835L19.7381 10.1171C19.1681 9.40454 18.9543 9.54705 19.2393 10.4021L20.1656 12.8961C19.8094 13.1098 19.4531 13.3236 19.168 13.5374L17.2442 11.6847C16.5316 11.0434 16.3891 11.1859 16.8166 12.041L18.028 14.3924C17.7429 14.6775 17.3867 14.8912 17.1016 15.1762L14.964 13.6086C14.1802 13.0386 14.0376 13.2523 14.5364 13.9649L16.0328 16.1738C15.7478 16.4588 15.4628 16.7439 15.1777 17.1001L12.8976 15.7463C12.1137 15.2475 11.9 15.4613 12.5413 16.1738L14.2514 18.169C14.0376 18.454 13.7526 18.8103 13.5389 19.1666L11.1162 18.0977C10.2611 17.7414 10.1186 17.9552 10.8311 18.5965L12.8263 20.3779C12.6125 20.7342 12.3988 21.0905 12.2563 21.4467L9.69106 20.7342C8.76473 20.4492 8.69348 20.7342 9.47729 21.233L11.615 22.7293C11.4724 23.0856 11.2587 23.4419 11.1162 23.8694L8.47971 23.4419C7.55339 23.2994 7.48213 23.5132 8.26594 23.9407L10.6174 25.2233C10.4749 25.5796 10.4036 26.0071 10.2611 26.3634L7.62464 26.2921C6.69832 26.2921 6.62707 26.5059 7.48213 26.8622L9.97608 27.7885C9.90482 28.216 9.83357 28.5723 9.76231 28.9998L7.12586 29.3561C6.19953 29.4274 6.19953 29.6411 7.0546 29.9262L9.6198 30.6387C9.6198 31.0662 9.54855 31.4225 9.54855 31.8501L6.91209 32.3488C5.98577 32.4914 5.98577 32.7764 6.91209 32.9189L9.54855 33.2752C9.54855 33.7027 9.6198 34.059 9.6198 34.4865L7.0546 35.2703C6.12828 35.5553 6.19953 35.7691 7.12586 35.8404L9.76231 35.9116C9.83357 36.3392 9.90482 36.6954 9.97608 37.123L7.55339 38.2631C6.69832 38.6906 6.76958 38.9044 7.6959 38.8331L10.3324 38.5481C10.4749 38.9756 10.5461 39.3319 10.6886 39.7594L8.40846 41.1133C7.62464 41.6121 7.6959 41.8258 8.62222 41.6121L11.2587 41.042C11.4012 41.3983 11.615 41.7546 11.7575 42.1821L9.69106 43.821C8.9785 44.391 9.04976 44.6048 9.97608 44.3198L12.47 43.4647C12.6838 43.821 12.8976 44.1773 13.1113 44.5336L11.4012 46.2437C10.7599 46.885 10.9024 47.0988 11.6862 46.6712L14.1089 45.5311C14.3227 45.8874 14.6077 46.1724 14.8927 46.4575L13.2538 48.5239C12.6838 49.2364 12.8263 49.4502 13.6101 48.9514L15.819 47.5263C16.1041 47.8113 16.3891 48.0963 16.6741 48.3814L15.3202 50.6615C14.8215 51.4453 15.0352 51.5879 15.7478 51.0178L17.8142 49.3077C18.0992 49.5927 18.4555 49.8065 18.8118 50.0915L17.6717 52.5142C17.2441 53.3693 17.4579 53.5118 18.0992 52.7992L19.9519 50.8753C20.3081 51.0891 20.6644 51.3028 21.0207 51.5166L20.1656 54.0106C19.8806 54.8656 20.0944 55.0081 20.6644 54.2956L22.3033 52.1579C22.6596 52.3004 23.0159 52.5142 23.4434 52.6567L22.9446 55.2932C22.7308 56.2195 23.0159 56.2907 23.4434 55.5069L24.7972 53.2267C25.1535 53.3693 25.5811 53.5118 25.9373 53.583L25.6523 56.2907C25.5811 57.2171 25.7948 57.2883 26.2224 56.4332L27.2912 54.0106C27.7187 54.0818 28.075 54.1531 28.5025 54.2243L28.645 56.8608C28.7163 57.7871 28.9301 57.7871 29.2151 56.932L29.9276 54.3668C30.3552 54.4381 30.7827 54.4381 31.139 54.4381L31.5665 57.0745C31.709 58.0009 31.9228 58.0009 32.1366 57.0745L32.6354 54.4381C33.0629 54.4381 33.4192 54.4381 33.8467 54.3668L34.5593 56.932C34.8443 57.8584 35.058 57.7871 35.1293 56.8608L35.2718 54.2243C35.6994 54.1531 36.0556 54.0818 36.4832 54.0106L37.4807 56.4332C37.837 57.2883 38.0508 57.2171 38.0508 56.2907L37.7658 53.7968C38.1933 53.7255 38.5496 53.583 38.9058 53.4405L40.2597 55.7207C40.7585 56.5045 40.9723 56.4332 40.7585 55.5069L40.2597 52.8705C40.616 52.728 41.0435 52.5854 41.3998 52.3717L42.9674 54.5093C43.5375 55.2932 43.7512 55.1506 43.4662 54.2243L42.7537 51.8016C43.1099 51.5879 43.4662 51.3741 43.8225 51.1603L45.6039 53.0842C46.2452 53.7968 46.4589 53.6543 46.1027 52.7992L45.0338 50.3765C45.3901 50.1627 45.6751 49.8777 46.0314 49.664L48.0978 51.3741C48.8104 51.9441 49.0241 51.8016 48.5254 51.0178L47.1715 48.7376C47.4565 48.4526 47.7415 48.1676 48.0266 47.8826L50.2355 49.3077C51.0193 49.8065 51.1618 49.664 50.5918 48.8801L48.9529 46.8137C49.2379 46.5287 49.4517 46.1724 49.7367 45.8874L52.1594 47.0988C53.0145 47.5263 53.157 47.3125 52.5157 46.6712L50.5918 44.7473C50.8055 44.391 51.0193 44.106 51.2331 43.7497L53.727 44.6048C54.5821 44.8898 54.7246 44.6761 54.012 44.106L51.9456 42.4671C52.1594 42.1109 52.3019 41.7546 52.5157 41.3271L55.0809 41.8971C56.0072 42.1109 56.0784 41.8971 55.2946 41.3983L53.0145 39.9732C53.157 39.6169 53.2995 39.1894 53.442 38.8331L56.0784 39.1181C57.0048 39.1894 57.076 38.9756 56.221 38.5481L53.7983 37.408C53.8695 36.9805 54.012 36.6242 54.0833 36.1966L56.7197 36.1254C57.6461 36.1254 57.7173 35.8404 56.791 35.5553L54.2971 34.914C54.3683 34.4865 54.3683 34.1302 54.4396 33.7027L57.076 33.3464ZM22.7308 45.8874C22.0183 47.17 20.1656 47.3125 19.0255 46.6712C18.2417 46.2437 16.3891 44.4623 14.6789 41.6833C13.1113 38.8331 12.2563 35.6266 12.2563 32.1351C12.2563 26.2921 14.7502 21.0905 18.8118 17.4564C20.0944 16.7439 21.8758 16.8864 22.5883 18.0977L29.6426 30.2112C30.2127 31.2088 30.2127 33.1327 29.5714 34.1302L22.7308 45.8874ZM47.314 44.6048C45.0338 47.3125 42.1124 49.4502 38.6921 50.6615C34.2742 51.9441 28.5025 52.0154 26.2936 50.8041C24.7972 50.0915 24.2272 48.5239 24.9398 47.2413L31.9228 35.1278C32.4928 34.1302 33.9892 33.2752 35.1293 33.2752H48.7391C50.2355 33.2752 51.2331 34.5578 51.2331 35.8404C51.2331 36.9805 50.3067 40.8995 47.314 44.6048ZM30.9965 32.0638C30.9965 31.4938 31.4953 30.995 32.0653 30.995C32.6354 30.995 33.1341 31.4938 33.1341 32.0638C33.1341 32.6339 32.6354 33.1327 32.0653 33.1327C31.4953 33.1327 30.9965 32.6339 30.9965 32.0638ZM49.0241 30.7812H34.773C33.5617 30.71 32.1366 29.7124 31.5665 28.6436L24.7972 16.8864C24.0847 15.6038 24.8685 14.1787 26.0086 13.5374C26.7924 13.1098 29.2863 12.326 32.5641 12.326C41.8986 12.5398 49.5942 19.3091 51.3756 28.1448C51.5893 29.6411 50.3067 30.7812 49.0241 30.7812Z" fill="url(#paint1_linear_348_1782)"/>
<defs>
<linearGradient id="paint0_linear_348_1782" x1="32.0551" y1="0.0199516" x2="32.0551" y2="64.1286" gradientUnits="userSpaceOnUse">
<stop stop-color="#D3D7DD"/>
<stop offset="1" stop-color="#888C90"/>
</linearGradient>
<linearGradient id="paint1_linear_348_1782" x1="32.0513" y1="6.37351" x2="32.0513" y2="57.8253" gradientUnits="userSpaceOnUse">
<stop stop-color="#D9DADB"/>
<stop offset="1" stop-color="#7D8082"/>
</linearGradient>
</defs>
</svg>
