<svg width="46" height="46" viewBox="0 0 46 46" fill="none" xmlns="http://www.w3.org/2000/svg">
<path d="M21.4691 3C22.2389 1.66666 24.1634 1.66667 24.9332 3L45.0206 37.7925C45.7904 39.1258 44.8282 40.7925 43.2886 40.7925H3.11364C1.57404 40.7925 0.611794 39.1258 1.38159 37.7925L21.4691 3Z" fill="url(#paint0_linear_987_3137)"/>
<path d="M21.9016 3.25C22.4429 2.31252 23.7457 2.25395 24.3821 3.07422L24.5002 3.25L44.5872 38.043C45.1643 39.0429 44.443 40.293 43.2883 40.293H3.11353C1.95901 40.2929 1.23769 39.0429 1.8147 38.043L21.9016 3.25Z" stroke="white" stroke-opacity="0.27"/>
<path d="M23.3112 26.6149C22.6092 26.6149 22.0355 26.0547 22.0188 25.3529L21.8324 17.5144C21.8126 16.6839 22.4805 16 23.3112 16C24.142 16 24.8098 16.6839 24.7901 17.5144L24.6036 25.3529C24.5869 26.0547 24.0132 26.6149 23.3112 26.6149ZM23.3222 32.1254C22.766 32.1254 22.3233 31.9717 21.994 31.6644C21.6647 31.3497 21.5 30.9289 21.5 30.402C21.5 29.8751 21.6647 29.458 21.994 29.1506C22.3233 28.8359 22.766 28.6786 23.3222 28.6786C23.8784 28.6786 24.3211 28.8359 24.6504 29.1506C24.9798 29.458 25.1444 29.8751 25.1444 30.402C25.1444 30.9289 24.9798 31.3497 24.6504 31.6644C24.3211 31.9717 23.8784 32.1254 23.3222 32.1254Z" fill="white"/>
<defs>
<linearGradient id="paint0_linear_987_3137" x1="23.2011" y1="0" x2="23.2011" y2="54.39" gradientUnits="userSpaceOnUse">
<stop stop-color="#FBBD04"/>
<stop offset="1" stop-color="#CA6C00"/>
</linearGradient>
</defs>
</svg>
