<svg width="48" height="48" viewBox="0 0 48 48" fill="none" xmlns="http://www.w3.org/2000/svg">
<path d="M18.9503 8.06884C21.0208 4.48269 26.1969 4.48269 28.2674 8.06885L42.5019 32.7237C44.5723 36.3098 41.9842 40.7925 37.8433 40.7925H9.37438C5.23345 40.7925 2.64537 36.3098 4.71584 32.7237L18.9503 8.06884Z" fill="#FF392B"/>
<path d="M23.9258 26.7526C23.2239 26.7526 22.6501 26.1924 22.6335 25.4906L22.447 17.6521C22.4273 16.8216 23.0951 16.1377 23.9258 16.1377C24.7566 16.1377 25.4244 16.8216 25.4047 17.6521L25.2182 25.4906C25.2015 26.1924 24.6278 26.7526 23.9258 26.7526ZM23.9368 32.2631C23.3806 32.2631 22.9379 32.1094 22.6086 31.8021C22.2793 31.4874 22.1146 31.0666 22.1146 30.5397C22.1146 30.0128 22.2793 29.5957 22.6086 29.2883C22.9379 28.9736 23.3806 28.8163 23.9368 28.8163C24.493 28.8163 24.9357 28.9736 25.2651 29.2883C25.5944 29.5957 25.759 30.0128 25.759 30.5397C25.759 31.0666 25.5944 31.4874 25.2651 31.8021C24.9357 32.1094 24.493 32.2631 23.9368 32.2631Z" fill="white"/>
</svg>
